<?xml version="1.0" encoding="UTF-8"?>
<!DOCTYPE svg PUBLIC "-//W3C//DTD SVG 1.1//EN" "http://www.w3.org/Graphics/SVG/1.1/DTD/svg11.dtd">
<!-- Creator: CorelDRAW -->
<svg xmlns="http://www.w3.org/2000/svg" xml:space="preserve" width="209mm" height="202.5mm" version="1.1" style="shape-rendering:geometricPrecision; text-rendering:geometricPrecision; image-rendering:optimizeQuality; fill-rule:evenodd; clip-rule:evenodd"
viewBox="0 0 20900 20250"
 xmlns:xlink="http://www.w3.org/1999/xlink"
 xmlns:xodm="http://www.corel.com/coreldraw/odm/2003">
 <defs>
  <style type="text/css">
   <![CDATA[
    .fil0 {fill:#FEFEFE}
    .fil6 {fill:#F7931C}
    .fil4 {fill:#A23D97}
    .fil5 {fill:#A23D97}
    .fil3 {fill:#00A550}
    .fil1 {fill:#0060AE}
    .fil7 {fill:#FEFEFE;fill-rule:nonzero}
    .fil2 {fill:#0060AE;fill-rule:nonzero}
   ]]>
  </style>
 </defs>
 <g id="Camada_x0020_1">
  <metadata id="CorelCorpID_0Corel-Layer"/>
  <g id="_2851442915280">
   <g>
    <polygon class="fil0" points="8816.12,4089.14 9465.74,5165.69 10115.36,6242.23 9510.18,7333.52 8904.99,8424.82 7650.19,8439.57 6395.38,8454.32 5745.76,7377.77 5096.14,6301.23 5701.32,5209.94 6306.5,4118.64 7561.31,4103.89 "/>
    <polygon class="fil0" points="12566.87,2664.52 13216.49,3741.07 13866.11,4817.61 13260.93,5908.9 12655.74,7000.2 11400.94,7014.95 10146.13,7029.7 9496.51,5953.15 8846.89,4876.61 9452.07,3785.32 10057.25,2694.02 11312.06,2679.27 "/>
    <polygon class="fil0" points="14721.44,6563.75 15371.06,7640.3 16020.68,8716.84 15415.5,9808.13 14810.31,10899.43 13555.51,10914.18 12300.7,10928.93 11651.08,9852.38 11001.46,8775.84 11606.64,7684.55 12211.82,6593.25 13466.63,6578.5 "/>
    <polygon class="fil0" points="10977.93,8088.17 11627.55,9164.72 12277.17,10241.26 11671.99,11332.55 11066.8,12423.85 9812,12438.6 8557.19,12453.35 7907.57,11376.8 7257.95,10300.26 7863.13,9208.97 8468.31,8117.67 9723.12,8102.92 "/>
    <path class="fil1" d="M8895.75 3777.13c49.5,0 103.18,30.13 128.97,72.39l1363.39 2234.03c23.28,38.15 25.8,245.16 3.47,283.88l-1308.16 2266.81c-25.85,44.79 -135.95,108.36 -187.67,108.36l-2617.2 0c-49.51,0 -103.16,-30.11 -128.96,-72.38l-1363.39 -2234.02c-23.29,-38.17 -25.83,-245.14 -3.49,-283.87l1308.16 -2266.81c124.76,-216.07 2437.62,-108.39 2804.88,-108.39zm-2552.28 329.09l-1247.33 2161.38c-0.43,14.71 -0.23,30.97 0.56,45.65l1281.75 2100.26 2452.4 0 1247.3 -2161.36c0.43,-14.7 0.23,-30.99 -0.56,-45.68l-1281.74 -2100.25 -2452.38 0z"/>
    <path class="fil2" d="M8257.13 6825.75c24.06,-30.68 46.13,-62.97 66,-96.7 79.79,-135.37 121.98,-290.42 121.98,-448.35 0,-119.32 -23.39,-235.12 -69.52,-344.18 -30.59,-72.34 -70.24,-139.58 -118.39,-200.92 254.99,120.08 477.65,306.13 643.94,545.1 -165.06,237.17 -386.93,424.05 -644.01,545.05zm-696.18 -970.36c-44.83,0 -88.06,6.96 -128.64,19.83l-155.91 -270.03c88.24,-15.46 178.43,-23.76 269.85,-24.58 4.79,0.77 9.71,1.17 14.7,1.17 146.36,0 282.35,45.22 394.74,122.41 183.57,126.09 304.18,337.48 304.18,576.51 0,217.97 -102.84,423.09 -273.36,554.42l-138.77 -240.36c85.11,-77.78 138.52,-189.67 138.52,-314.06 0,-234.89 -190.42,-425.31 -425.31,-425.31zm-335.24 163.6l-201.2 -348.48c21.93,-7.6 44.05,-14.74 66.35,-21.41l183.32 317.54c-17.57,16.06 -33.79,33.56 -48.47,52.35zm-89.96 254.47l-301.9 -522.9c34.12,-16.96 68.83,-32.77 104.11,-47.3l234.01 405.3c-22.41,50.55 -35.23,106.28 -36.22,164.9zm1952.05 -42.22c-161.4,-250.55 -384.11,-459.63 -644.16,-604.64 -132.15,-73.7 -273.23,-130.57 -419.27,-169.02 -128.75,-33.91 -261.47,-53.51 -395.46,-58.47 -22.51,-1.7 -45.17,-2.55 -67.96,-2.55 -5.36,0 -10.62,0.48 -15.75,1.35 -123.25,1.07 -245.73,14.51 -365.35,40.05l-228.11 -395.12c-25.22,-43.69 -81.08,-58.65 -124.76,-33.44 -43.68,25.24 -58.64,81.09 -33.42,124.78l203.77 352.95c-110.43,36.05 -217.37,82.78 -319.05,139.47 -260.03,145.01 -482.77,354.09 -644.16,604.64 -27.31,42.41 -15.07,98.92 27.33,126.24 23.45,15.1 51.21,18.08 75.97,10.58l65.59 113.61c8.46,14.66 23.8,22.85 39.59,22.85 7.74,0 15.59,-1.98 22.78,-6.13 21.84,-12.61 29.33,-40.53 16.72,-62.37l-76.67 -132.79c23.28,-34.66 47.71,-68.26 73.26,-100.73l382.81 663.03c8.45,14.65 23.8,22.85 39.58,22.85 7.75,0 15.6,-1.98 22.79,-6.13 21.84,-12.61 29.32,-40.54 16.71,-62.37l-399.51 -691.97c26.34,-29.69 53.67,-58.3 81.9,-85.81l558.01 966.5c8.46,14.66 23.81,22.85 39.59,22.85 7.75,0 15.6,-1.98 22.79,-6.14 21.84,-12.6 29.32,-40.53 16.71,-62.36l-568.25 -984.24c29.06,-25.25 58.96,-49.39 89.62,-72.41l674.6 1168.44c8.45,14.65 23.81,22.84 39.58,22.84 7.75,0 15.6,-1.97 22.79,-6.12 21.84,-12.62 29.32,-40.55 16.71,-62.38l-678.83 -1175.78c31.61,-21.08 63.92,-41.03 96.9,-59.8l356.69 617.8c0.13,0.22 0.26,0.45 0.39,0.66l111.82 193.69 282.52 489.31c8.45,14.66 23.79,22.84 39.57,22.83 7.76,0 15.61,-1.96 22.79,-6.12 21.85,-12.61 29.33,-40.53 16.72,-62.38l-229 -396.6c48.56,26.98 102.95,44.74 160.82,50.89l218.52 378.48c8.46,14.65 23.81,22.85 39.58,22.85 7.75,0 15.6,-1.98 22.79,-6.13 21.84,-12.61 29.32,-40.54 16.71,-62.37l-193.11 -334.52c23.88,-3.3 47.15,-8.6 69.61,-15.72l180.41 312.48c1.79,4.77 3.96,9.47 6.61,14.02 2.57,4.46 5.5,8.6 8.67,12.44l15.97 27.66c3.39,8.66 8.01,16.56 13.6,23.56l255.32 442.22c16.91,29.31 47.61,45.68 79.19,45.68 15.48,0 31.16,-3.94 45.55,-12.25 43.69,-25.22 58.65,-81.07 33.44,-124.74l-203.76 -352.93c178.97,-58.31 347.01,-144.01 500.86,-255.59 183.86,-133.38 339.41,-297.75 462.33,-488.57 19.4,-30.12 19.4,-68.79 0,-98.91z"/>
    <path class="fil3" d="M8428.34 7797.85l2596.85 0c49.11,0 102.38,29.9 127.97,71.83l1352.79 2216.66c23.09,37.85 25.6,243.26 3.44,281.67l-1297.99 2249.19c-25.65,44.44 -134.89,107.52 -186.21,107.52l-2596.85 0c-49.12,0 -102.36,-29.88 -127.95,-71.82l-1352.79 -2216.65c-23.11,-37.88 -25.64,-243.24 -3.47,-281.67l1297.99 -2249.18c25.66,-44.44 134.91,-107.55 186.22,-107.55zm64.41 326.53l-1237.63 2144.58c-0.43,14.59 -0.22,30.73 0.56,45.29l1271.79 2083.93 2433.32 0 1237.61 -2144.55c0.43,-14.59 0.23,-30.75 -0.56,-45.33l-1271.77 -2083.92 -2433.32 0z"/>
    <path class="fil3" d="M8779.08 10728.37c-2.37,109.91 -2.37,281.39 -0.47,378.99 1.9,97.59 5.68,121.27 28.9,164.86 23.22,43.59 65.85,107.06 119.87,147.82 53.99,40.74 119.37,58.73 182.38,67.74 63,8.99 123.65,8.99 184.77,-7.11 61.11,-16.11 122.69,-48.32 175.75,-96.64 53.06,-48.32 97.59,-112.76 117.02,-173.87 18.93,-59.57 14,-116.03 10.23,-380.82l25.1 0c31.32,0 56.92,-25.61 56.92,-56.92l0 -27.11c0,-31.31 -25.6,-56.91 -56.92,-56.91l-26.74 0c-0.96,-100.24 -1.65,-215.5 -1.89,-333.37l28.63 0c31.32,0 56.92,-25.61 56.92,-56.92l0 -27.11c0,-31.31 -25.6,-56.92 -56.92,-56.92l-28.66 0c0.26,-176.77 1.76,-348.35 5.17,-473 7.58,-276.68 24.64,-322.15 52.58,-359.11 27.95,-36.95 66.81,-65.37 109.91,-84.79 43.11,-19.43 90.49,-29.85 185.71,-34.58 95.22,-4.74 238.31,-3.81 337.79,15.63 99.48,19.42 155.39,57.31 197.08,109.43 41.69,52.11 69.16,118.43 77.69,175.76 8.52,57.31 -1.89,105.65 -14.21,149.23 -12.31,43.58 -26.53,82.43 -60.17,129.33 -33.63,46.9 -86.69,101.85 -128.86,154.92 -42.15,53.06 -73.43,104.22 -91.43,151.13 -18.01,46.9 -22.74,89.52 -27,121.75 -2.31,17.44 -4.48,31.81 -6.14,44.64 -101.59,44.6 -172.56,146.07 -172.56,264.13 0,159.23 129.11,288.34 288.34,288.34 159.24,0 288.34,-129.11 288.34,-288.34 0,-146.03 -108.59,-266.69 -249.4,-285.71 0.51,-6.01 1.17,-12.12 2.07,-18.33 7.11,-49.27 28.9,-104.23 64.42,-154.45 35.54,-50.21 84.81,-95.68 123.18,-144 38.38,-48.33 65.85,-99.5 90.01,-163.46 24.17,-63.95 45.01,-140.69 45.95,-215.54 0.95,-74.85 -17.99,-147.81 -44.05,-211.29 -26.05,-63.49 -59.23,-117.49 -107.08,-162.97 -47.83,-45.49 -110.37,-82.43 -164.85,-104.22 -54.48,-21.8 -100.91,-28.44 -200.4,-30.81 -99.49,-2.36 -252.03,-0.46 -353.41,14.22 -101.39,14.69 -151.6,42.16 -194.24,68.23 -42.64,26.05 -77.7,50.68 -110.86,92.85 -33.16,42.16 -64.44,101.85 -81.96,150.18 -17.52,48.32 -21.32,85.26 -22.74,118.91 -1.41,33.63 -0.48,63.95 0,79.11 0.47,15.16 0.47,15.16 -87.64,106.59 -88.12,91.43 -264.35,274.3 -369.05,402.69 -104.69,128.38 -137.86,202.29 -156.81,260.09 -18.95,57.79 -23.68,99.48 -28.42,144.48 -4.74,45.01 -9.48,93.34 -11.85,203.25zm1568.79 -272.79c67.91,0 122.97,55.06 122.97,122.97 0,67.9 -55.06,122.96 -122.97,122.96 -67.9,0 -122.96,-55.06 -122.96,-122.96 0,-67.91 55.06,-122.97 122.96,-122.97zm-966.47 232.82l43.11 0 -0.99 -333.37 -42.12 0c-31.31,0 -56.92,-25.61 -56.92,-56.92l0 -27.11c0,-31.31 25.61,-56.92 56.92,-56.92l41.69 0 -0.35 -115.67c-0.6,-194.14 -0.62,-202.34 -4.31,-203.02 -3.7,-0.67 -11.05,6.19 -37.33,30.68 -26.29,24.49 -71.5,66.62 -139.5,143.24 -68.01,76.61 -158.8,187.71 -215.55,274.33 -56.75,86.61 -79.45,148.74 -93.77,275.98 -14.35,127.23 -20.33,319.57 -5.39,441.43 14.93,121.86 50.77,173.23 94.98,209.67 44.2,36.44 96.76,57.94 146.34,62.13 49.58,4.18 96.18,-8.97 138.59,-35.25 42.41,-26.28 80.64,-65.71 99.76,-108.71 19.11,-43.01 19.11,-89.61 18.54,-302.94l-0.17 -56.61 -43.53 0c-31.31,0 -56.92,-25.61 -56.92,-56.92l0 -27.11c0,-31.31 25.61,-56.91 56.92,-56.91z"/>
    <path class="fil4" d="M12192.88 6280.03l2596.86 0c49.11,0 102.38,30.26 127.96,72.7l1352.79 2243.63c23.1,38.31 25.6,246.21 3.44,285.09l-1297.99 2276.54c-25.64,44.98 -134.89,108.83 -186.2,108.83l-2596.86 0c-49.12,0 -102.35,-30.24 -127.95,-72.69l-1352.79 -2243.62c-23.11,-38.33 -25.63,-246.19 -3.47,-285.09l1297.99 -2276.53c25.66,-44.98 134.91,-108.86 186.22,-108.86zm64.42 330.5l-1237.63 2170.67c-0.43,14.76 -0.23,31.09 0.56,45.83l1271.78 2109.28 2433.32 0 1237.61 -2170.64c0.43,-14.76 0.23,-31.12 -0.56,-45.87l-1271.77 -2109.27 -2433.31 0z"/>
    <path class="fil5" d="M12789.02 8074.49l0 -383.11 1613.48 0 0 366.56 0 516.85 0 334.69 89.64 0 0 -334.69 0 -516.85c0,-112.79 -0.01,-225.58 0,-338.36 0.01,-141.27 18.8,-118.43 -224.1,-118.43l-1355.77 0c-232.2,0 -212.89,-24.85 -212.89,129.7 0,114.55 0,229.1 0,343.64l0 68.04c-131.44,0 -200.08,-15.75 -267.66,57.65 -64.19,69.71 -46.08,165.95 -46.08,281.78 0,44.69 9.91,203.8 -4.59,231.16 -5.6,10.56 -106.42,109.16 -118.66,117.41l65.89 69.02c17.82,-26.12 47.63,-50.76 69.97,-73.25 108.03,-108.75 77.03,-50.04 77.03,-344.34 0,-253.4 -11.94,-249.2 224.1,-249.2 0,31.51 7.84,104.61 -9.38,125.9 -10.14,12.53 -57.43,58 -69.06,65.83l62.87 66.44c94.07,-62.19 237.05,-304.69 285.35,-185.12 17.47,43.24 -61.49,103.57 -108.71,151.11 -16.61,16.71 -108.61,101.83 -114.48,122.69 -4.32,15.37 -2.26,21.6 3.83,27.86 5.28,25.35 -3.53,3.65 12.32,24.78 42.16,56.23 75.45,133.11 43.7,204.64 -17.12,69.42 -82.09,118.57 -127.45,164.22 -34.93,35.16 -113.12,122.34 -147.06,145.22l62.86 66.44 103.92 -101.58 1.29 162.19 0 315.55 0 42.38c-67.31,0 -134.63,0.23 -201.92,-0.24 -39.26,-0.27 -59.66,3.32 -65.95,35.13 -3.91,19.82 -1.05,77.83 -1.05,101.58 0,86.39 3.39,120.43 46.08,166.79 46.12,50.09 90.35,57.93 155.59,57.67l1277.36 -0.01 0 -90.23c-80.8,0 -1278.4,9.55 -1326.88,-6.53 -50.26,-16.69 -62.51,-57.7 -62.51,-127.69l0 -46.24 1120.48 0 0 -90.23 -851.56 0 0 -42.38 0 -315.55 -0.05 -200.41c-0.81,-100.53 18.07,-49.92 72.61,-135.56 16.17,-25.38 36.17,-62.96 39.48,-100.34 21.7,-49.71 2.31,-158.56 -28.63,-208.71l-15.9 -20.2c-0.73,-0.77 -2.14,-2.25 -3.35,-3.21 -0.92,-15.79 5.86,-17.54 21.13,-32.44 11.83,-11.54 19.31,-19.28 30.95,-31 69.13,-69.58 156.84,-133.31 158.75,-212.83 1.79,-74.97 -46.37,-127.67 -104.55,-143.43 -42.06,-11.4 -78.02,0.23 -103.48,13.4 -32.25,16.68 -39.95,38.45 -66.96,56.66l0 -180.82zm358.55 338.72l89.64 0 0 -90.22 -89.64 0 0 90.22zm358.55 0l89.64 0 0 -90.22 -89.64 0 0 90.22zm179.28 0l89.63 0 0 -90.22 -89.63 0 0 90.22zm268.91 0l89.64 0 0 -90.22 -89.64 0 0 90.22zm-448.19 -451.14l89.64 0 0 -90.23 -89.64 0 0 90.23zm627.47 451.14l89.63 0 0 -90.22 -89.63 0 0 90.22zm-941.2 1037.64l89.63 0 0 -90.23 -89.63 0 0 90.23zm-179.28 0l89.64 0 0 -90.23 -89.64 0 0 90.23zm179.28 -180.46l89.63 0 0 -90.23 -89.63 0 0 90.23zm134.45 -676.72l89.64 0 0 -90.23 -89.64 0 0 90.23zm179.28 0l89.64 0 0 -90.23 -89.64 0 0 90.23zm-44.82 406.04l89.64 0 0 -90.23 -89.64 0 0 90.23zm-268.91 0l89.63 0 0 -90.23 -89.63 0 0 90.23zm-179.28 0l89.64 0 0 -90.23 -89.64 0 0 90.23zm941.2 -406.04l89.64 0 0 -90.23 -89.64 0 0 90.23zm179.28 0l89.63 0 0 -90.23 -89.63 0 0 90.23zm-493.01 225.58l89.63 0 0 -90.23 -89.63 0 0 90.23zm-627.47 0l89.64 0 0 -90.23 -89.64 0 0 90.23zm1568.67 -180.46l89.63 0 0 -90.23 -89.63 0 0 90.23zm-448.19 -496.26l89.63 0 0 -90.23 -89.63 0 0 90.23zm-896.38 0l89.63 0 0 -90.23 -89.63 0 0 90.23zm448.19 -180.46l89.63 0 0 -90.23 -89.63 0 0 90.23zm-448.19 0l89.63 0 0 -90.23 -89.63 0 0 90.23zm-268.92 0l89.64 0 0 -90.23 -89.64 0 0 90.23zm1165.3 0l89.63 0 0 -90.23 -89.63 0 0 90.23zm-179.28 0l89.64 0 0 -90.23 -89.64 0 0 90.23zm599.45 1805.67c-18.44,18.38 -17.11,47.12 -16.94,72.09l0.14 287.74 89.63 0c0,-63.91 0,-127.82 0,-191.74 0,-197.59 16.62,-103.87 22.41,-168.05 20.84,-27.62 47.32,-135.79 54.51,-177.47 12.89,-74.62 12.72,-132.19 12.72,-218.8 0,-79 15.47,-199.05 -14.84,-255.35 -33.08,-61.45 -108.92,-95.93 -186.84,-54.42 -13.98,-26.58 -30.28,-39.66 -59.69,-52.71 -40.53,-17.98 -63.15,-7.01 -102.78,-3.68 -7.93,-34.25 -30.13,-59.89 -58.17,-76.79 -36.48,-22 -67.24,-24.76 -115.51,-13.44 0,-70.15 14.81,-153.61 -46.89,-200.93 -25.12,-19.26 -49.75,-31.82 -93.22,-30.76 -37.09,0.89 -71.83,19.21 -91.01,38.51 -52.19,52.55 -37.79,131.59 -37.79,210.09 0,84.79 0,169.59 0,254.38l0 100.9c-13.56,3.65 -53.27,26.06 -67.07,33.99 -68.67,39.46 -112.21,114.56 -112.21,207.94 0,143.29 95.77,192.66 182.64,250.95 50.45,33.86 85.87,44.14 86.52,127.21 0.58,73.2 -0.24,146.9 -0.24,220.17l89.64 0c0,-71.43 -0.16,-142.87 0,-214.3 0.21,-89.42 -11.29,-116.65 -57.3,-162.25 -19.55,-19.38 -38.31,-29.74 -61.47,-45.27 -22.81,-15.31 -40.46,-27.17 -63.9,-42.83 -25.44,-16.98 -39.33,-25.43 -56.9,-49.87 -15.65,-21.79 -26.76,-51.26 -29.35,-83.81 1.39,-60.35 39.82,-123.1 89.64,-134.78l0 101.51 89.64 0 0 -309.56 -0.31 -356.2c1.35,-31.88 23.84,-65.57 58,-52.84 46.93,17.48 31.95,125.37 31.95,205.42 0,80.83 0,161.66 0,242.49l89.63 0c0,-38.38 -9.82,-181.91 12.23,-207.66 12.16,-14.2 30.31,-22.32 49.36,-12.87 37.72,18.71 28.06,64.93 28.05,119.02 0,48.88 0,97.75 0,146.62l89.64 0c0,-40.01 -1.99,-85.05 -0.31,-124.38 1.56,-36.63 29.06,-67.32 61.9,-51.03 32.85,16.29 28.18,49 28.05,96.46 -0.1,41.35 0,82.71 0,124.07l89.64 0c0,-40.02 -2,-85.05 -0.32,-124.38 1.59,-37.24 31.04,-70.22 65.52,-48.88 31.73,19.62 24.5,52.94 24.44,99.94 -0.06,43.11 -0.01,86.21 -0.01,129.32 0,79.04 -3.68,148.63 -17.17,214.32 -6.2,30.21 -14.27,63.91 -24.07,94.19 -9.74,30.08 -26.04,61.52 -31.59,87.72zm28.02 -1848.2l0 538.79 89.63 0 0 -538.79c0,-79.68 12.12,-330.37 -15,-393.52 -55.16,-128.44 -183.44,-105.33 -298.73,-105.33 -89.64,0 -179.28,0 -268.91,0l0 90.23c561.23,0 493.01,-80.39 493.01,408.62z"/>
    <g>
     <path class="fil6" d="M10051.7 2366.02l2617.2 0c49.5,0 103.19,30.14 128.98,72.39l1363.38 2234.04c23.28,38.14 25.8,245.16 3.47,283.87l-1308.16 2266.81c-25.85,44.79 -135.95,108.36 -187.67,108.36l-2617.2 0c-49.5,0 -103.16,-30.11 -128.96,-72.37l-1363.38 -2234.03c-23.29,-38.17 -25.84,-245.13 -3.5,-283.87l1308.16 -2266.8c25.86,-44.79 135.97,-108.4 187.68,-108.4zm64.92 329.09l-1247.33 2161.39c-0.43,14.7 -0.23,30.96 0.57,45.64l1281.75 2100.26 2452.39 0 1247.3 -2161.36c0.44,-14.7 0.23,-30.99 -0.56,-45.68l-1281.74 -2100.25 -2452.38 0z"/>
     <path class="fil6" d="M10166.96 5169.64l579.47 0 572 -948.49 -767.66 178.94c-62.36,14.53 -135.1,-26.75 -135.1,-90.79l0 -0.01c0,-64.04 30.49,-123.69 92.84,-138.23l1129.5 -263.29c116.07,-27.05 214.48,50.36 242.11,115.65l220.23 520.55 425.49 0c67.64,0 122.97,55.33 122.97,122.96l0 0.01c0,67.63 -55.33,122.97 -122.97,122.97l-498.08 0c-42.14,0 -79.5,-21.48 -101.68,-54.03 -25.2,-36.46 -117.39,-250.08 -140.24,-304.08l-287.08 447.83 337.88 350.48c62.43,64.75 62.42,160.15 -1.32,223.88l0 0.01c-66.07,61.32 -151.75,81.57 -238.93,-0.91l-395.62 -374.29 -189.92 287.49 -0.5 0.74c-22.65,42.73 -67.62,72 -119.11,72l-724.28 0c-74.09,0 -134.7,-60.61 -134.7,-134.69 0,-74.09 60.61,-134.7 134.7,-134.7zm1777.43 -1756.05c140.05,0 253.58,113.53 253.58,253.58 0,140.05 -113.53,253.58 -253.58,253.58 -140.05,0 -253.58,-113.53 -253.58,-253.58 0,-140.05 113.53,-253.58 253.58,-253.58zm-343.54 2129.96c44.5,25.45 90.68,28.53 137.92,17.13l-122.77 473.55c31.01,-11.4 59.47,-22.44 77,-29.03 26.9,-10.11 28.05,-9.73 67.16,11.25 39.11,20.99 116.19,62.59 164.47,88.92 48.27,26.33 67.73,37.4 78.8,49.23 11.07,11.83 13.74,24.42 13.16,37.97 -0.57,13.54 -4.38,28.04 -11.83,38.73 -7.44,10.68 -18.5,17.55 -24.03,20.99 -5.54,3.43 -5.54,3.43 -104.37,4 -98.84,0.57 -296.51,1.72 -395.92,1.53 -99.4,-0.19 -100.55,-1.72 -94.06,-27.84 6.5,-26.13 20.63,-76.85 28.07,-103.56 7.44,-26.72 8.2,-29.42 9.69,-31.08 1.5,-1.66 3.74,-2.29 26.64,-8.58 17.26,-4.74 46.25,-12.72 80.09,-23.33l69.98 -519.88zm128.53 -242.77c30.33,0 54.92,24.58 54.92,54.91 0,30.33 -24.59,54.91 -54.92,54.91 -30.33,0 -54.91,-24.58 -54.91,-54.91 0,-30.33 24.58,-54.91 54.91,-54.91z"/>
    </g>
   </g>
   <path class="fil7" d="M2804.16 16042.93c-154.38,0 -303.65,-20.93 -447.82,-62.78 -144.16,-41.86 -259.94,-96.26 -347.37,-163.22l153.46 -340.41c83.7,61.39 183.21,110.68 298.55,147.88 115.33,37.2 230.65,55.81 345.98,55.81 128.34,0 223.2,-19.07 284.59,-57.21 61.39,-38.13 92.07,-88.82 92.07,-152.05 0,-46.51 -18.13,-85.11 -54.4,-115.8 -36.28,-30.7 -82.78,-55.34 -139.51,-73.93 -56.74,-18.61 -133.46,-39.07 -230.19,-61.39 -148.8,-35.35 -270.64,-70.68 -365.51,-106.03 -94.86,-35.34 -176.25,-92.07 -244.14,-170.2 -67.9,-78.12 -101.84,-182.29 -101.84,-312.5 0,-113.46 30.69,-216.24 92.07,-308.31 61.39,-92.07 153.93,-165.09 277.63,-219.03 123.7,-53.95 274.83,-80.91 453.4,-80.91 124.62,0 246.46,14.88 365.51,44.64 119.05,29.77 223.22,72.55 312.5,128.35l-139.51 343.19c-180.43,-102.31 -360.86,-153.46 -541.3,-153.46 -126.48,0 -219.95,20.45 -280.4,61.39 -60.46,40.92 -90.68,94.86 -90.68,161.82 0,66.97 34.87,116.73 104.63,149.28 69.75,32.55 176.24,64.64 319.47,96.25 148.81,35.35 270.65,70.69 365.52,106.03 94.86,35.35 176.24,91.15 244.14,167.42 67.88,76.25 101.84,179.49 101.84,309.7 0,111.6 -31.16,213.44 -93.47,305.53 -62.32,92.07 -155.79,165.07 -280.41,219.02 -124.64,53.94 -276.24,80.92 -454.81,80.92zm1107.71 -1534.6l435.26 0 0 1501.11 -435.26 0 0 -1501.11zm217.63 -209.26c-79.98,0 -145.09,-23.25 -195.31,-69.76 -50.23,-46.49 -75.34,-104.15 -75.34,-172.99 0,-68.82 25.11,-126.48 75.34,-172.99 50.22,-46.49 115.33,-69.74 195.31,-69.74 79.99,0 145.09,22.31 195.31,66.96 50.22,44.64 75.34,100.44 75.34,167.4 0,72.55 -25.12,132.54 -75.34,179.97 -50.22,47.44 -115.32,71.15 -195.31,71.15zm1127.23 1732.69c-124.63,0 -246.47,-15.34 -365.51,-46.04 -119.05,-30.68 -213.92,-69.29 -284.6,-115.78l145.09 -312.5c66.97,42.78 147.87,77.66 242.75,104.63 94.86,26.97 187.87,40.45 279.01,40.45 184.15,0 276.23,-45.56 276.23,-136.71 0,-42.78 -25.12,-73.47 -75.34,-92.08 -50.22,-18.6 -127.42,-34.41 -231.58,-47.43 -122.76,-18.6 -224.15,-39.99 -304.13,-64.17 -79.99,-24.19 -149.28,-66.97 -207.86,-128.36 -58.6,-61.37 -87.9,-148.8 -87.9,-262.27 0,-94.86 27.45,-179.03 82.31,-252.5 54.88,-73.48 134.86,-130.68 239.96,-171.6 105.09,-40.93 229.26,-61.38 372.49,-61.38 106.03,0 211.59,11.62 316.68,34.87 105.1,23.26 192.05,55.34 260.89,96.26l-145.09 309.7c-132.07,-74.39 -276.24,-111.6 -432.48,-111.6 -93.01,0 -162.76,13.02 -209.26,39.06 -46.51,26.05 -69.76,59.52 -69.76,100.46 0,46.49 25.11,79.05 75.33,97.64 50.23,18.61 130.21,36.28 239.96,53.02 122.76,20.46 223.21,42.32 301.33,65.56 78.13,23.26 146.03,65.58 203.69,126.96 57.67,61.38 86.49,146.95 86.49,256.7 0,93 -27.9,175.78 -83.7,248.32 -55.8,72.54 -137.19,128.81 -244.14,168.81 -106.96,39.99 -233.91,59.98 -380.86,59.98zm1886.16 -2008.91c180.43,0 337.61,35.33 471.54,106.02 133.92,70.69 238.09,174.85 312.5,312.5 74.4,137.64 111.6,304.12 111.6,499.44l0 1068.63 -452 0 0 -468.75 -892.86 0 0 468.75 -446.42 0 0 -1068.63c0,-195.32 37.2,-361.8 111.6,-499.44 74.41,-137.65 178.58,-241.81 312.51,-312.5 133.92,-70.69 291.1,-106.02 471.53,-106.02zm443.64 1155.12l0 -279.02c0,-161.82 -39.99,-284.12 -119.98,-366.9 -79.98,-82.78 -188.8,-124.16 -326.45,-124.16 -139.51,0 -248.79,41.38 -327.85,124.16 -79.05,82.78 -118.58,205.08 -118.58,366.9l0 279.02 892.86 0zm1372.76 853.79c-124.64,0 -246.47,-15.34 -365.51,-46.04 -119.05,-30.68 -213.92,-69.29 -284.6,-115.78l145.08 -312.5c66.98,42.78 147.88,77.66 242.75,104.63 94.86,26.97 187.87,40.45 279.02,40.45 184.15,0 276.22,-45.56 276.22,-136.71 0,-42.78 -25.11,-73.47 -75.33,-92.08 -50.23,-18.6 -127.42,-34.41 -231.59,-47.43 -122.76,-18.6 -224.14,-39.99 -304.12,-64.17 -79.99,-24.19 -149.28,-66.97 -207.87,-128.36 -58.6,-61.37 -87.89,-148.8 -87.89,-262.27 0,-94.86 27.44,-179.03 82.31,-252.5 54.87,-73.48 134.85,-130.68 239.96,-171.6 105.09,-40.93 229.26,-61.38 372.48,-61.38 106.03,0 211.59,11.62 316.69,34.87 105.09,23.26 192.05,55.34 260.88,96.26l-145.09 309.7c-132.07,-74.39 -276.23,-111.6 -432.48,-111.6 -93.01,0 -162.75,13.02 -209.26,39.06 -46.5,26.05 -69.76,59.52 -69.76,100.46 0,46.49 25.12,79.05 75.33,97.64 50.23,18.61 130.21,36.28 239.97,53.02 122.76,20.46 223.2,42.32 301.33,65.56 78.13,23.26 146.03,65.58 203.69,126.96 57.66,61.38 86.49,146.95 86.49,256.7 0,93 -27.9,175.78 -83.71,248.32 -55.8,72.54 -137.18,128.81 -244.14,168.81 -106.95,39.99 -233.9,59.98 -380.85,59.98zm1481.58 0c-124.63,0 -246.47,-15.34 -365.51,-46.04 -119.05,-30.68 -213.92,-69.29 -284.6,-115.78l145.09 -312.5c66.97,42.78 147.87,77.66 242.75,104.63 94.86,26.97 187.87,40.45 279.01,40.45 184.15,0 276.22,-45.56 276.22,-136.71 0,-42.78 -25.11,-73.47 -75.33,-92.08 -50.22,-18.6 -127.42,-34.41 -231.58,-47.43 -122.77,-18.6 -224.15,-39.99 -304.13,-64.17 -79.99,-24.19 -149.28,-66.97 -207.86,-128.36 -58.6,-61.37 -87.9,-148.8 -87.9,-262.27 0,-94.86 27.45,-179.03 82.31,-252.5 54.88,-73.48 134.86,-130.68 239.96,-171.6 105.09,-40.93 229.26,-61.38 372.49,-61.38 106.03,0 211.59,11.62 316.68,34.87 105.09,23.26 192.05,55.34 260.88,96.26l-145.08 309.7c-132.07,-74.39 -276.24,-111.6 -432.48,-111.6 -93.01,0 -162.76,13.02 -209.26,39.06 -46.51,26.05 -69.76,59.52 -69.76,100.46 0,46.49 25.11,79.05 75.33,97.64 50.23,18.61 130.21,36.28 239.96,53.02 122.76,20.46 223.2,42.32 301.33,65.56 78.13,23.26 146.03,65.58 203.69,126.96 57.67,61.38 86.49,146.95 86.49,256.7 0,93 -27.9,175.78 -83.7,248.32 -55.8,72.54 -137.19,128.81 -244.14,168.81 -106.96,39.99 -233.91,59.98 -380.86,59.98zm976.56 -1523.43l435.27 0 0 1501.11 -435.27 0 0 -1501.11zm217.64 -209.26c-79.98,0 -145.09,-23.25 -195.31,-69.76 -50.23,-46.49 -75.34,-104.15 -75.34,-172.99 0,-68.82 25.11,-126.48 75.34,-172.99 50.22,-46.49 115.33,-69.74 195.31,-69.74 79.99,0 145.08,22.31 195.31,66.96 50.22,44.64 75.33,100.44 75.33,167.4 0,72.55 -25.11,132.54 -75.33,179.97 -50.23,47.44 -115.32,71.15 -195.31,71.15zm1127.23 1732.69c-124.63,0 -246.47,-15.34 -365.51,-46.04 -119.05,-30.68 -213.92,-69.29 -284.6,-115.78l145.09 -312.5c66.97,42.78 147.87,77.66 242.74,104.63 94.86,26.97 187.87,40.45 279.02,40.45 184.15,0 276.22,-45.56 276.22,-136.71 0,-42.78 -25.11,-73.47 -75.33,-92.08 -50.23,-18.6 -127.42,-34.41 -231.59,-47.43 -122.76,-18.6 -224.14,-39.99 -304.12,-64.17 -79.99,-24.19 -149.28,-66.97 -207.87,-128.36 -58.6,-61.37 -87.89,-148.8 -87.89,-262.27 0,-94.86 27.44,-179.03 82.31,-252.5 54.88,-73.48 134.85,-130.68 239.96,-171.6 105.09,-40.93 229.26,-61.38 372.49,-61.38 106.03,0 211.59,11.62 316.68,34.87 105.09,23.26 192.05,55.34 260.88,96.26l-145.09 309.7c-132.06,-74.39 -276.23,-111.6 -432.47,-111.6 -93.02,0 -162.76,13.02 -209.27,39.06 -46.5,26.05 -69.75,59.52 -69.75,100.46 0,46.49 25.11,79.05 75.33,97.64 50.23,18.61 130.2,36.28 239.96,53.02 122.76,20.46 223.2,42.32 301.33,65.56 78.13,23.26 146.03,65.58 203.69,126.96 57.66,61.38 86.49,146.95 86.49,256.7 0,93 -27.9,175.78 -83.7,248.32 -55.8,72.54 -137.19,128.81 -244.14,168.81 -106.96,39.99 -233.91,59.98 -380.86,59.98zm1880.58 -94.86c-42.78,31.62 -95.33,55.33 -157.64,71.15 -62.33,15.81 -126.95,23.71 -193.93,23.71 -180.42,0 -319,-45.57 -415.73,-136.72 -96.72,-91.13 -145.09,-225.06 -145.09,-401.78l0 -1316.95 435.26 0 0 365.51 371.1 0 0 334.82 -371.1 0 0 611.04c0,63.25 15.82,112.07 47.45,146.49 31.61,34.41 77.19,51.61 136.71,51.61 66.96,0 126.49,-18.59 178.57,-55.8l114.4 306.92zm245.53 -1428.57l435.27 0 0 1501.11 -435.27 0 0 -1501.11zm217.63 -209.26c-79.98,0 -145.09,-23.25 -195.3,-69.76 -50.23,-46.49 -75.34,-104.15 -75.34,-172.99 0,-68.82 25.11,-126.48 75.34,-172.99 50.21,-46.49 115.32,-69.74 195.3,-69.74 79.99,0 145.09,22.31 195.32,66.96 50.22,44.64 75.33,100.44 75.33,167.4 0,72.55 -25.11,132.54 -75.33,179.97 -50.23,47.44 -115.33,71.15 -195.32,71.15zm2112.17 209.26l-633.37 1501.11 -449.22 0 -630.57 -1501.11 449.21 0 415.73 1021.21 429.69 -1021.21 418.53 0zm1660.15 0l0 1501.11 -415.74 0 0 -172.98c-107.88,130.2 -264.13,195.3 -468.74,195.3 -141.38,0 -269.25,-31.61 -383.65,-94.86 -114.39,-63.25 -204.15,-153.46 -269.25,-270.65 -65.11,-117.19 -97.66,-252.97 -97.66,-407.36 0,-154.39 32.55,-290.18 97.66,-407.37 65.1,-117.18 154.86,-207.4 269.25,-270.64 114.4,-63.24 242.27,-94.86 383.65,-94.86 191.59,0 341.33,60.44 449.21,181.36l0 -159.05 435.27 0zm-809.15 1166.29c109.74,0 200.89,-37.66 273.44,-112.99 72.54,-75.34 108.81,-176.26 108.81,-302.74 0,-126.49 -36.27,-227.4 -108.81,-302.73 -72.55,-75.34 -163.7,-113.01 -273.44,-113.01 -111.6,0 -203.67,37.67 -276.22,113.01 -72.54,75.33 -108.82,176.24 -108.82,302.73 0,126.48 36.28,227.4 108.82,302.74 72.55,75.33 164.62,112.99 276.22,112.99z"/>
   <path class="fil7" d="M1939.3 16788.75l34.96 -3.14c1.63,14.15 5.49,25.74 11.58,34.84 6.09,9.03 15.52,16.36 28.28,21.99 12.77,5.58 27.18,8.39 43.16,8.39 14.21,0 26.71,-2.09 37.58,-6.36 10.87,-4.25 18.92,-10.07 24.23,-17.47 5.29,-7.4 7.98,-15.46 7.98,-24.1 0,-8.78 -2.56,-16.44 -7.66,-23.05 -5.11,-6.54 -13.55,-12.04 -25.33,-16.56 -7.53,-2.88 -24.23,-7.47 -50.1,-13.69 -25.86,-6.22 -43.93,-12.05 -54.27,-17.55 -13.42,-7.06 -23.38,-15.84 -29.92,-26.25 -6.62,-10.4 -9.89,-22.13 -9.89,-35.03 0,-14.28 4.06,-27.56 12.11,-39.87 8.06,-12.37 19.77,-21.74 35.29,-28.15 15.46,-6.42 32.68,-9.62 51.6,-9.62 20.82,0 39.21,3.33 55.12,10.07 15.92,6.68 28.16,16.57 36.73,29.67 8.58,13.02 13.17,27.82 13.83,44.32l-35.76 2.75c-1.9,-17.74 -8.38,-31.17 -19.44,-40.2 -11.07,-9.11 -27.44,-13.62 -49.04,-13.62 -22.52,0 -38.97,4.12 -49.24,12.37 -10.28,8.25 -15.45,18.21 -15.45,29.86 0,10.09 3.66,18.4 10.93,24.94 7.2,6.49 25.87,13.23 56.11,20.04 30.26,6.88 51.01,12.84 62.26,17.94 16.31,7.53 28.42,17.02 36.22,28.61 7.79,11.53 11.65,24.82 11.65,39.88 0,14.99 -4.26,29 -12.83,42.23 -8.58,13.22 -20.83,23.5 -36.86,30.84 -16.05,7.33 -34.05,10.99 -54.15,10.99 -25.41,0 -46.68,-3.72 -63.83,-11.12 -17.23,-7.4 -30.65,-18.54 -40.41,-33.46 -9.82,-14.86 -14.93,-31.69 -15.44,-50.49zm361.83 90.36l0 -281.28 37.32 0 0 281.28 -37.32 0zm172.03 -90.36l34.96 -3.14c1.64,14.15 5.49,25.74 11.58,34.84 6.09,9.03 15.52,16.36 28.29,21.99 12.76,5.58 27.18,8.39 43.15,8.39 14.21,0 26.71,-2.09 37.58,-6.36 10.87,-4.25 18.92,-10.07 24.23,-17.47 5.29,-7.4 7.98,-15.46 7.98,-24.1 0,-8.78 -2.56,-16.44 -7.66,-23.05 -5.1,-6.54 -13.55,-12.04 -25.33,-16.56 -7.53,-2.88 -24.23,-7.47 -50.1,-13.69 -25.86,-6.22 -43.93,-12.05 -54.27,-17.55 -13.42,-7.06 -23.38,-15.84 -29.92,-26.25 -6.62,-10.4 -9.89,-22.13 -9.89,-35.03 0,-14.28 4.06,-27.56 12.11,-39.87 8.06,-12.37 19.77,-21.74 35.29,-28.15 15.46,-6.42 32.68,-9.62 51.6,-9.62 20.82,0 39.21,3.33 55.12,10.07 15.92,6.68 28.16,16.57 36.73,29.67 8.58,13.02 13.17,27.82 13.83,44.32l-35.76 2.75c-1.9,-17.74 -8.38,-31.17 -19.44,-40.2 -11.07,-9.11 -27.44,-13.62 -49.04,-13.62 -22.52,0 -38.97,4.12 -49.23,12.37 -10.29,8.25 -15.46,18.21 -15.46,29.86 0,10.09 3.66,18.4 10.93,24.94 7.2,6.49 25.87,13.23 56.11,20.04 30.26,6.88 51.01,12.84 62.26,17.94 16.31,7.53 28.42,17.02 36.22,28.61 7.79,11.53 11.65,24.82 11.65,39.88 0,14.99 -4.25,29 -12.83,42.23 -8.58,13.22 -20.83,23.5 -36.86,30.84 -16.05,7.33 -34.05,10.99 -54.15,10.99 -25.41,0 -46.68,-3.72 -63.83,-11.12 -17.22,-7.4 -30.65,-18.54 -40.41,-33.46 -9.82,-14.86 -14.92,-31.69 -15.44,-50.49zm427.04 90.36l0 -248.27 -92.71 0 0 -33.01 222.75 0 0 33.01 -92.71 0 0 248.27 -37.33 0zm250.6 0l0 -281.28 203.1 0 0 33.01 -165.78 0 0 86.42 155.17 0 0 33 -155.17 0 0 95.86 172.46 0 0 32.99 -209.78 0zm341.8 0l0 -281.28 55.79 0 66.51 199.12c6.16,18.52 10.61,32.4 13.43,41.64 3.21,-10.22 8.25,-25.29 15.06,-45.11l67.69 -195.65 49.84 0 0 281.28 -35.76 0 0 -235.31 -82.11 235.31 -33.52 0 -81.18 -239.64 0 239.64 -35.75 0zm378.54 0l107.9 -281.28 40.92 0 114.51 281.28 -42.36 0 -32.54 -85.25 -118.45 0 -30.5 85.25 -39.48 0zm80.92 -115.49l95.86 0 -29.34 -77.99c-8.84,-23.7 -15.52,-43.27 -20.17,-58.73 -3.85,18.34 -9.03,36.34 -15.51,54.16l-30.84 82.56zm380.37 115.49l0 -281.28 38.23 0 147.59 220.78 0 -220.78 35.74 0 0 281.28 -38.23 0 -147.59 -220.78 0 220.78 -35.74 0zm334.6 0l107.91 -281.28 40.92 0 114.51 281.28 -42.36 0 -32.54 -85.25 -118.45 0 -30.51 85.25 -39.48 0zm80.93 -115.49l95.86 0 -29.34 -77.99c-8.84,-23.7 -15.52,-43.27 -20.17,-58.73 -3.85,18.34 -9.03,36.34 -15.52,54.16l-30.83 82.56zm493.64 16.82l37.32 9.43c-7.8,30.58 -21.8,53.82 -42.04,69.86 -20.23,16.04 -44.98,24.09 -74.25,24.09 -30.24,0 -54.87,-6.15 -73.85,-18.52 -18.99,-12.31 -33.39,-30.18 -43.28,-53.56 -9.88,-23.44 -14.87,-48.52 -14.87,-75.36 0,-29.27 5.57,-54.81 16.77,-76.61 11.19,-21.8 27.11,-38.36 47.73,-49.7 20.62,-11.32 43.35,-16.94 68.09,-16.94 28.15,0 51.79,7.13 70.91,21.47 19.18,14.33 32.53,34.44 40.07,60.37l-36.53 8.63c-6.48,-20.42 -15.98,-35.35 -28.36,-44.64 -12.37,-9.37 -27.96,-14.02 -46.74,-14.02 -21.55,0 -39.61,5.18 -54.09,15.52 -14.47,10.34 -24.68,24.29 -30.5,41.7 -5.9,17.49 -8.84,35.49 -8.84,54.02 0,23.89 3.47,44.78 10.41,62.59 6.93,17.87 17.74,31.17 32.41,40.01 14.66,8.84 30.5,13.22 47.59,13.22 20.83,0 38.38,-6.01 52.78,-18 14.4,-12.05 24.15,-29.86 29.27,-53.56zm170.98 98.67l0 -281.28 37.32 0 0 281.28 -37.32 0zm172.81 -136.91c0,-46.61 12.58,-83.15 37.65,-109.54 25.07,-26.38 57.42,-39.53 97.1,-39.53 25.99,0 49.36,6.21 70.25,18.59 20.83,12.37 36.73,29.65 47.67,51.85 10.93,22.13 16.43,47.27 16.43,75.36 0,28.48 -5.77,54.02 -17.28,76.48 -11.53,22.52 -27.83,39.54 -48.91,51.07 -21.15,11.59 -43.94,17.34 -68.37,17.34 -26.5,0 -50.14,-6.41 -71.03,-19.18 -20.82,-12.77 -36.67,-30.18 -47.4,-52.31 -10.74,-22.06 -16.11,-45.45 -16.11,-70.13zm38.5 0.66c0,33.85 9.1,60.5 27.31,79.94 18.19,19.45 41.05,29.2 68.54,29.2 28.02,0 51.01,-9.82 69.15,-29.46 18.06,-19.64 27.11,-47.54 27.11,-83.68 0,-22.84 -3.87,-42.82 -11.59,-59.83 -7.74,-17.04 -19.07,-30.26 -33.92,-39.62 -14.93,-9.36 -31.63,-14.07 -50.16,-14.07 -26.31,0 -48.97,9.03 -67.96,27.09 -18.98,18.08 -28.48,48.2 -28.48,90.43zm359.41 136.25l0 -281.28 38.23 0 147.59 220.78 0 -220.78 35.74 0 0 281.28 -38.23 0 -147.58 -220.78 0 220.78 -35.75 0zm334.61 0l107.9 -281.28 40.92 0 114.51 281.28 -42.36 0 -32.54 -85.25 -118.45 0 -30.5 85.25 -39.48 0zm80.93 -115.49l95.85 0 -29.34 -77.99c-8.84,-23.7 -15.52,-43.27 -20.17,-58.73 -3.85,18.34 -9.03,36.34 -15.51,54.16l-30.83 82.56zm291.71 115.49l0 -281.28 37.32 0 0 248.29 138.28 0 0 32.99 -175.6 0zm395.94 0l0 -281.28 96.89 0c21.87,0 38.57,1.31 50.1,4 16.11,3.73 29.86,10.48 41.24,20.17 14.87,12.56 25.93,28.54 33.26,48.05 7.4,19.51 11.07,41.84 11.07,66.91 0,21.35 -2.48,40.28 -7.47,56.77 -4.97,16.5 -11.38,30.19 -19.18,40.99 -7.85,10.8 -16.37,19.31 -25.66,25.47 -9.24,6.21 -20.43,10.93 -33.53,14.14 -13.16,3.21 -28.22,4.78 -45.24,4.78l-101.48 0zm37.32 -32.99l59.97 0c18.53,0 33.06,-1.71 43.61,-5.18 10.53,-3.47 18.92,-8.31 25.21,-14.6 8.77,-8.84 15.64,-20.76 20.55,-35.69 4.91,-14.93 7.4,-32.99 7.4,-54.27 0,-29.47 -4.84,-52.12 -14.46,-67.96 -9.63,-15.85 -21.36,-26.46 -35.17,-31.83 -9.94,-3.85 -25.99,-5.75 -48.13,-5.75l-58.98 0 0 215.28zm328.51 32.99l0 -281.28 203.1 0 0 33.01 -165.78 0 0 86.42 155.18 0 0 33 -155.18 0 0 95.86 172.46 0 0 32.99 -209.78 0zm450.16 0l0 -281.28 37.32 0 0 248.29 138.28 0 0 32.99 -175.6 0zm270.57 0l107.9 -281.28 40.92 0 114.51 281.28 -42.36 0 -32.54 -85.25 -118.45 0 -30.5 85.25 -39.48 0zm80.92 -115.49l95.86 0 -29.34 -77.99c-8.84,-23.7 -15.52,-43.27 -20.17,-58.73 -3.85,18.34 -9.03,36.34 -15.51,54.16l-30.84 82.56zm291.72 115.49l0 -281.28 105.54 0c21.47,0 38.69,2.81 51.73,8.52 12.96,5.69 23.1,14.46 30.44,26.31 7.4,11.79 11.07,24.17 11.07,37.13 0,11.99 -3.28,23.31 -9.76,33.92 -6.48,10.6 -16.31,19.18 -29.46,25.72 17.02,4.99 30.11,13.49 39.22,25.54 9.16,11.99 13.75,26.19 13.75,42.56 0,13.23 -2.83,25.47 -8.39,36.79 -5.56,11.33 -12.44,20.04 -20.62,26.2 -8.19,6.09 -18.47,10.74 -30.77,13.88 -12.38,3.14 -27.5,4.71 -45.45,4.71l-107.3 0zm37.32 -163.03l60.82 0c16.5,0 28.36,-1.11 35.49,-3.27 9.49,-2.82 16.62,-7.53 21.4,-14.07 4.78,-6.56 7.21,-14.74 7.21,-24.63 0,-9.36 -2.22,-17.62 -6.74,-24.68 -4.46,-7.13 -10.87,-12.05 -19.19,-14.66 -8.31,-2.62 -22.58,-3.93 -42.75,-3.93l-56.24 0 0 85.24zm0 130.04l70.05 0c12.05,0 20.49,-0.47 25.41,-1.38 8.51,-1.5 15.71,-4.06 21.47,-7.67 5.77,-3.6 10.47,-8.84 14.21,-15.71 3.74,-6.87 5.56,-14.79 5.56,-23.77 0,-10.54 -2.68,-19.63 -8.12,-27.43 -5.37,-7.79 -12.83,-13.22 -22.39,-16.37 -9.48,-3.14 -23.24,-4.71 -41.11,-4.71l-65.08 0 0 97.04zm296.23 -103.92c0,-46.61 12.57,-83.15 37.65,-109.54 25.07,-26.38 57.41,-39.53 97.09,-39.53 25.99,0 49.37,6.21 70.25,18.59 20.83,12.37 36.73,29.65 47.67,51.85 10.93,22.13 16.43,47.27 16.43,75.36 0,28.48 -5.76,54.02 -17.28,76.48 -11.53,22.52 -27.83,39.54 -48.91,51.07 -21.15,11.59 -43.93,17.34 -68.36,17.34 -26.51,0 -50.14,-6.41 -71.03,-19.18 -20.83,-12.77 -36.67,-30.18 -47.41,-52.31 -10.73,-22.06 -16.1,-45.45 -16.1,-70.13zm38.49 0.66c0,33.85 9.1,60.5 27.31,79.94 18.2,19.45 41.06,29.2 68.55,29.2 28.02,0 51.01,-9.82 69.14,-29.46 18.07,-19.64 27.11,-47.54 27.11,-83.68 0,-22.84 -3.87,-42.82 -11.59,-59.83 -7.73,-17.04 -19.06,-30.26 -33.92,-39.62 -14.93,-9.36 -31.62,-14.07 -50.15,-14.07 -26.32,0 -48.97,9.03 -67.96,27.09 -18.99,18.08 -28.49,48.2 -28.49,90.43zm360.6 136.25l0 -281.28 124.65 0c25.08,0 44.13,2.56 57.16,7.59 13.03,5.05 23.45,13.96 31.24,26.73 7.79,12.77 11.65,26.9 11.65,42.36 0,19.96 -6.48,36.79 -19.38,50.48 -12.9,13.68 -32.8,22.32 -59.78,26.05 9.89,4.72 17.36,9.43 22.46,14.02 10.87,9.94 21.15,22.46 30.77,37.45l48.66 76.6 -46.5 0 -37.18 -58.53c-10.81,-16.96 -19.78,-29.86 -26.78,-38.83 -7.08,-8.97 -13.36,-15.19 -18.92,-18.79 -5.5,-3.54 -11.2,-6.02 -16.96,-7.46 -4.19,-0.86 -11.06,-1.31 -20.69,-1.31l-43.09 0 0 124.92 -37.31 0zm37.31 -157.13l79.89 0c17.01,0 30.24,-1.77 39.8,-5.31 9.56,-3.47 16.83,-9.1 21.74,-16.89 4.97,-7.72 7.47,-16.11 7.47,-25.21 0,-13.3 -4.78,-24.29 -14.41,-32.87 -9.62,-8.58 -24.82,-12.83 -45.57,-12.83l-88.92 0 0 93.11zm296.11 157.13l107.91 -281.28 40.92 0 114.51 281.28 -42.37 0 -32.53 -85.25 -118.45 0 -30.51 85.25 -39.48 0zm80.93 -115.49l95.86 0 -29.34 -77.99c-8.84,-23.7 -15.52,-43.27 -20.17,-58.73 -3.86,18.34 -9.03,36.34 -15.52,54.16l-30.83 82.56zm335.64 115.49l0 -248.27 -92.71 0 0 -33.01 222.75 0 0 33.01 -92.71 0 0 248.27 -37.33 0zm238.42 -136.91c0,-46.61 12.58,-83.15 37.65,-109.54 25.07,-26.38 57.42,-39.53 97.1,-39.53 25.99,0 49.36,6.21 70.25,18.59 20.83,12.37 36.73,29.65 47.67,51.85 10.93,22.13 16.43,47.27 16.43,75.36 0,28.48 -5.77,54.02 -17.28,76.48 -11.53,22.52 -27.83,39.54 -48.91,51.07 -21.15,11.59 -43.94,17.34 -68.37,17.34 -26.5,0 -50.14,-6.41 -71.03,-19.18 -20.82,-12.77 -36.66,-30.18 -47.4,-52.31 -10.74,-22.06 -16.11,-45.45 -16.11,-70.13zm38.5 0.66c0,33.85 9.1,60.5 27.31,79.94 18.19,19.45 41.05,29.2 68.54,29.2 28.02,0 51.01,-9.82 69.15,-29.46 18.06,-19.64 27.11,-47.54 27.11,-83.68 0,-22.84 -3.87,-42.82 -11.59,-59.83 -7.74,-17.04 -19.07,-30.26 -33.92,-39.62 -14.93,-9.36 -31.63,-14.07 -50.16,-14.07 -26.31,0 -48.97,9.03 -67.96,27.09 -18.98,18.08 -28.48,48.2 -28.48,90.43zm67.57 -162.31l25.14 -53.82 45.58 0 -42.04 53.82 -28.68 0zm293.02 298.56l0 -281.28 124.66 0c25.08,0 44.13,2.56 57.16,7.59 13.03,5.05 23.44,13.96 31.24,26.73 7.78,12.77 11.65,26.9 11.65,42.36 0,19.96 -6.49,36.79 -19.39,50.48 -12.9,13.68 -32.8,22.32 -59.77,26.05 9.88,4.72 17.35,9.43 22.46,14.02 10.87,9.94 21.15,22.46 30.77,37.45l48.65 76.6 -46.49 0 -37.19 -58.53c-10.81,-16.96 -19.78,-29.86 -26.78,-38.83 -7.07,-8.97 -13.36,-15.19 -18.92,-18.79 -5.5,-3.54 -11.19,-6.02 -16.96,-7.46 -4.19,-0.86 -11.06,-1.31 -20.69,-1.31l-43.08 0 0 124.92 -37.32 0zm37.32 -157.13l79.88 0c17.02,0 30.24,-1.77 39.8,-5.31 9.56,-3.47 16.83,-9.1 21.74,-16.89 4.98,-7.72 7.47,-16.11 7.47,-25.21 0,-13.3 -4.78,-24.29 -14.41,-32.87 -9.62,-8.58 -24.81,-12.83 -45.57,-12.83l-88.91 0 0 93.11zm333.23 157.13l0 -281.28 37.32 0 0 281.28 -37.32 0zm172.81 -136.91c0,-46.61 12.58,-83.15 37.66,-109.54 25.06,-26.38 57.41,-39.53 97.09,-39.53 25.99,0 49.36,6.21 70.25,18.59 20.83,12.37 36.73,29.65 47.67,51.85 10.93,22.13 16.43,47.27 16.43,75.36 0,28.48 -5.76,54.02 -17.28,76.48 -11.53,22.52 -27.83,39.54 -48.91,51.07 -21.15,11.59 -43.94,17.34 -68.36,17.34 -26.51,0 -50.15,-6.41 -71.04,-19.18 -20.82,-12.77 -36.66,-30.18 -47.4,-52.31 -10.74,-22.06 -16.11,-45.45 -16.11,-70.13zm38.5 0.66c0,33.85 9.1,60.5 27.31,79.94 18.19,19.45 41.05,29.2 68.54,29.2 28.02,0 51.01,-9.82 69.15,-29.46 18.06,-19.64 27.11,-47.54 27.11,-83.68 0,-22.84 -3.87,-42.82 -11.59,-59.83 -7.74,-17.04 -19.06,-30.26 -33.92,-39.62 -14.93,-9.36 -31.63,-14.07 -50.16,-14.07 -26.31,0 -48.97,9.03 -67.95,27.09 -18.99,18.08 -28.49,48.2 -28.49,90.43zm347.63 45.89l34.96 -3.14c1.64,14.15 5.49,25.74 11.58,34.84 6.09,9.03 15.52,16.36 28.29,21.99 12.77,5.58 27.18,8.39 43.15,8.39 14.21,0 26.71,-2.09 37.58,-6.36 10.87,-4.25 18.92,-10.07 24.23,-17.47 5.3,-7.4 7.99,-15.46 7.99,-24.1 0,-8.78 -2.56,-16.44 -7.67,-23.05 -5.1,-6.54 -13.54,-12.04 -25.33,-16.56 -7.53,-2.88 -24.22,-7.47 -50.09,-13.69 -25.86,-6.22 -43.94,-12.05 -54.28,-17.55 -13.42,-7.06 -23.37,-15.84 -29.92,-26.25 -6.62,-10.4 -9.88,-22.13 -9.88,-35.03 0,-14.28 4.06,-27.56 12.1,-39.87 8.06,-12.37 19.77,-21.74 35.29,-28.15 15.46,-6.42 32.68,-9.62 51.6,-9.62 20.83,0 39.21,3.33 55.13,10.07 15.91,6.68 28.15,16.57 36.73,29.67 8.57,13.02 13.16,27.82 13.82,44.32l-35.76 2.75c-1.89,-17.74 -8.38,-31.17 -19.44,-40.2 -11.06,-9.11 -27.43,-13.62 -49.04,-13.62 -22.52,0 -38.96,4.12 -49.23,12.37 -10.28,8.25 -15.46,18.21 -15.46,29.86 0,10.09 3.66,18.4 10.93,24.94 7.21,6.49 25.87,13.23 56.11,20.04 30.26,6.88 51.01,12.84 62.27,17.94 16.31,7.53 28.41,17.02 36.21,28.61 7.79,11.53 11.65,24.82 11.65,39.88 0,14.99 -4.25,29 -12.83,42.23 -8.57,13.22 -20.82,23.5 -36.86,30.84 -16.04,7.33 -34.05,10.99 -54.14,10.99 -25.42,0 -46.69,-3.72 -63.84,-11.12 -17.22,-7.4 -30.65,-18.54 -40.4,-33.46 -9.83,-14.86 -14.93,-31.69 -15.45,-50.49zm464.69 90.36l0 -281.28 96.89 0c21.87,0 38.57,1.31 50.1,4 16.11,3.73 29.86,10.48 41.24,20.17 14.87,12.56 25.94,28.54 33.26,48.05 7.4,19.51 11.08,41.84 11.08,66.91 0,21.35 -2.49,40.28 -7.48,56.77 -4.97,16.5 -11.38,30.19 -19.18,40.99 -7.85,10.8 -16.37,19.31 -25.66,25.47 -9.24,6.21 -20.43,10.93 -33.52,14.14 -13.17,3.21 -28.23,4.78 -45.25,4.78l-101.48 0zm37.32 -32.99l59.97 0c18.53,0 33.06,-1.71 43.61,-5.18 10.53,-3.47 18.92,-8.31 25.21,-14.6 8.77,-8.84 15.64,-20.76 20.55,-35.69 4.91,-14.93 7.4,-32.99 7.4,-54.27 0,-29.47 -4.84,-52.12 -14.46,-67.96 -9.63,-15.85 -21.36,-26.46 -35.17,-31.83 -9.94,-3.85 -25.99,-5.75 -48.13,-5.75l-58.98 0 0 215.28zm328.52 32.99l0 -281.28 203.1 0 0 33.01 -165.79 0 0 86.42 155.18 0 0 33 -155.18 0 0 95.86 172.46 0 0 32.99 -209.77 0zm516.15 0l0 -248.27 -92.71 0 0 -33.01 222.75 0 0 33.01 -92.71 0 0 248.27 -37.33 0zm250.6 0l0 -281.28 203.1 0 0 33.01 -165.78 0 0 86.42 155.18 0 0 33 -155.18 0 0 95.86 172.46 0 0 32.99 -209.78 0zm542.95 -98.67l37.31 9.43c-7.79,30.58 -21.8,53.82 -42.03,69.86 -20.23,16.04 -44.98,24.09 -74.25,24.09 -30.25,0 -54.87,-6.15 -73.86,-18.52 -18.99,-12.31 -33.39,-30.18 -43.27,-53.56 -9.89,-23.44 -14.87,-48.52 -14.87,-75.36 0,-29.27 5.57,-54.81 16.77,-76.61 11.19,-21.8 27.1,-38.36 47.73,-49.7 20.62,-11.32 43.34,-16.94 68.08,-16.94 28.16,0 51.79,7.13 70.91,21.47 19.19,14.33 32.54,34.44 40.07,60.37l-36.52 8.63c-6.49,-20.42 -15.99,-35.35 -28.36,-44.64 -12.37,-9.37 -27.96,-14.02 -46.74,-14.02 -21.55,0 -39.62,5.18 -54.09,15.52 -14.47,10.34 -24.68,24.29 -30.51,41.7 -5.89,17.49 -8.84,35.49 -8.84,54.02 0,23.89 3.48,44.78 10.42,62.59 6.93,17.87 17.74,31.17 32.4,40.01 14.67,8.84 30.51,13.22 47.6,13.22 20.83,0 38.37,-6.01 52.78,-18 14.4,-12.05 24.15,-29.86 29.27,-53.56zm164.3 98.67l0 -281.28 38.23 0 147.59 220.78 0 -220.78 35.74 0 0 281.28 -38.23 0 -147.59 -220.78 0 220.78 -35.74 0zm354.05 -136.91c0,-46.61 12.58,-83.15 37.65,-109.54 25.07,-26.38 57.41,-39.53 97.1,-39.53 25.99,0 49.36,6.21 70.25,18.59 20.82,12.37 36.73,29.65 47.67,51.85 10.93,22.13 16.43,47.27 16.43,75.36 0,28.48 -5.77,54.02 -17.28,76.48 -11.53,22.52 -27.83,39.54 -48.91,51.07 -21.15,11.59 -43.94,17.34 -68.37,17.34 -26.5,0 -50.14,-6.41 -71.03,-19.18 -20.82,-12.77 -36.67,-30.18 -47.4,-52.31 -10.74,-22.06 -16.11,-45.45 -16.11,-70.13zm38.49 0.66c0,33.85 9.11,60.5 27.32,79.94 18.19,19.45 41.05,29.2 68.54,29.2 28.02,0 51.01,-9.82 69.15,-29.46 18.06,-19.64 27.1,-47.54 27.1,-83.68 0,-22.84 -3.86,-42.82 -11.59,-59.83 -7.73,-17.04 -19.06,-30.26 -33.91,-39.62 -14.93,-9.36 -31.63,-14.07 -50.16,-14.07 -26.32,0 -48.97,9.03 -67.96,27.09 -18.98,18.08 -28.49,48.2 -28.49,90.43zm358.25 136.25l0 -281.28 37.31 0 0 248.29 138.28 0 0 32.99 -175.59 0zm290 -136.91c0,-46.61 12.58,-83.15 37.66,-109.54 25.06,-26.38 57.41,-39.53 97.09,-39.53 25.99,0 49.37,6.21 70.25,18.59 20.83,12.37 36.73,29.65 47.67,51.85 10.93,22.13 16.43,47.27 16.43,75.36 0,28.48 -5.76,54.02 -17.28,76.48 -11.53,22.52 -27.83,39.54 -48.91,51.07 -21.15,11.59 -43.93,17.34 -68.36,17.34 -26.51,0 -50.15,-6.41 -71.03,-19.18 -20.83,-12.77 -36.67,-30.18 -47.41,-52.31 -10.74,-22.06 -16.11,-45.45 -16.11,-70.13zm38.5 0.66c0,33.85 9.1,60.5 27.31,79.94 18.2,19.45 41.05,29.2 68.55,29.2 28.02,0 51,-9.82 69.14,-29.46 18.07,-19.64 27.11,-47.54 27.11,-83.68 0,-22.84 -3.87,-42.82 -11.59,-59.83 -7.74,-17.04 -19.06,-30.26 -33.92,-39.62 -14.93,-9.36 -31.62,-14.07 -50.16,-14.07 -26.31,0 -48.96,9.03 -67.95,27.09 -18.99,18.08 -28.49,48.2 -28.49,90.43zm491.41 25.86l0 -32.99 119.03 0 0 104.23c-18.27,14.53 -37.13,25.53 -56.57,32.87 -19.45,7.33 -39.41,10.99 -59.84,10.99 -27.63,0 -52.71,-5.89 -75.29,-17.74 -22.53,-11.78 -39.61,-28.93 -51.07,-51.26 -11.53,-22.4 -17.28,-47.41 -17.28,-74.97 0,-27.37 5.69,-52.91 17.15,-76.67 11.45,-23.71 27.89,-41.31 49.36,-52.77 21.48,-11.53 46.23,-17.28 74.25,-17.28 20.3,0 38.7,3.26 55.13,9.88 16.43,6.61 29.33,15.77 38.62,27.49 9.37,11.8 16.44,27.18 21.29,46.1l-33.6 9.16c-4.25,-14.27 -9.48,-25.53 -15.71,-33.78 -6.28,-8.18 -15.19,-14.73 -26.84,-19.64 -11.59,-4.91 -24.49,-7.4 -38.7,-7.4 -16.96,0 -31.62,2.62 -44.06,7.8 -12.38,5.16 -22.32,11.97 -29.98,20.49 -7.61,8.44 -13.49,17.74 -17.68,27.83 -7.14,17.47 -10.74,36.33 -10.74,56.7 0,25.14 4.32,46.15 12.9,63.11 8.63,16.89 21.21,29.47 37.64,37.64 16.5,8.2 33.99,12.32 52.51,12.32 16.11,0 31.83,-3.15 47.14,-9.37 15.33,-6.28 26.92,-12.89 34.83,-20.04l0 -52.7 -82.49 0zm261.6 110.39l0 -281.28 37.31 0 0 281.28 -37.31 0zm153.36 0l107.9 -281.28 40.92 0 114.51 281.28 -42.36 0 -32.54 -85.25 -118.44 0 -30.51 85.25 -39.48 0zm80.93 -115.49l95.85 0 -29.34 -77.99c-8.84,-23.7 -15.52,-43.27 -20.16,-58.73 -3.86,18.34 -9.04,36.34 -15.52,54.16l-30.83 82.56zm328.25 115.49l107.9 -281.28 40.92 0 114.51 281.28 -42.36 0 -32.54 -85.25 -118.45 0 -30.5 85.25 -39.48 0zm80.93 -115.49l95.85 0 -29.34 -77.99c-8.84,-23.7 -15.52,-43.27 -20.17,-58.73 -3.85,18.34 -9.03,36.34 -15.51,54.16l-30.83 82.56zm281.1 25.13l34.97 -3.14c1.63,14.15 5.49,25.74 11.58,34.84 6.09,9.03 15.51,16.36 28.28,21.99 12.77,5.58 27.18,8.39 43.16,8.39 14.2,0 26.71,-2.09 37.58,-6.36 10.87,-4.25 18.91,-10.07 24.22,-17.47 5.3,-7.4 7.99,-15.46 7.99,-24.1 0,-8.78 -2.56,-16.44 -7.66,-23.05 -5.11,-6.54 -13.55,-12.04 -25.33,-16.56 -7.53,-2.88 -24.23,-7.47 -50.1,-13.69 -25.86,-6.22 -43.94,-12.05 -54.28,-17.55 -13.41,-7.06 -23.37,-15.84 -29.92,-26.25 -6.61,-10.4 -9.88,-22.13 -9.88,-35.03 0,-14.28 4.06,-27.56 12.11,-39.87 8.06,-12.37 19.77,-21.74 35.28,-28.15 15.46,-6.42 32.68,-9.62 51.6,-9.62 20.83,0 39.22,3.33 55.13,10.07 15.91,6.68 28.15,16.57 36.73,29.67 8.57,13.02 13.16,27.82 13.82,44.32l-35.75 2.75c-1.9,-17.74 -8.39,-31.17 -19.45,-40.2 -11.06,-9.11 -27.43,-13.62 -49.04,-13.62 -22.52,0 -38.96,4.12 -49.23,12.37 -10.28,8.25 -15.46,18.21 -15.46,29.86 0,10.09 3.67,18.4 10.93,24.94 7.21,6.49 25.87,13.23 56.12,20.04 30.25,6.88 51.01,12.84 62.26,17.94 16.31,7.53 28.42,17.02 36.21,28.61 7.8,11.53 11.65,24.82 11.65,39.88 0,14.99 -4.25,29 -12.82,42.23 -8.58,13.22 -20.83,23.5 -36.87,30.84 -16.04,7.33 -34.05,10.99 -54.14,10.99 -25.41,0 -46.68,-3.72 -63.84,-11.12 -17.22,-7.4 -30.65,-18.54 -40.4,-33.46 -9.82,-14.86 -14.93,-31.69 -15.45,-50.49zm343.38 0l34.96 -3.14c1.63,14.15 5.49,25.74 11.58,34.84 6.09,9.03 15.52,16.36 28.28,21.99 12.77,5.58 27.18,8.39 43.16,8.39 14.21,0 26.71,-2.09 37.58,-6.36 10.87,-4.25 18.92,-10.07 24.22,-17.47 5.3,-7.4 7.99,-15.46 7.99,-24.1 0,-8.78 -2.56,-16.44 -7.66,-23.05 -5.11,-6.54 -13.55,-12.04 -25.33,-16.56 -7.53,-2.88 -24.23,-7.47 -50.1,-13.69 -25.86,-6.22 -43.93,-12.05 -54.27,-17.55 -13.42,-7.06 -23.38,-15.84 -29.92,-26.25 -6.62,-10.4 -9.89,-22.13 -9.89,-35.03 0,-14.28 4.06,-27.56 12.11,-39.87 8.06,-12.37 19.77,-21.74 35.29,-28.15 15.45,-6.42 32.68,-9.62 51.59,-9.62 20.83,0 39.22,3.33 55.13,10.07 15.92,6.68 28.16,16.57 36.73,29.67 8.58,13.02 13.16,27.82 13.83,44.32l-35.76 2.75c-1.9,-17.74 -8.38,-31.17 -19.45,-40.2 -11.06,-9.11 -27.43,-13.62 -49.03,-13.62 -22.52,0 -38.97,4.12 -49.24,12.37 -10.28,8.25 -15.45,18.21 -15.45,29.86 0,10.09 3.66,18.4 10.93,24.94 7.2,6.49 25.87,13.23 56.11,20.04 30.25,6.88 51.01,12.84 62.26,17.94 16.31,7.53 28.42,17.02 36.21,28.61 7.8,11.53 11.65,24.82 11.65,39.88 0,14.99 -4.25,29 -12.82,42.23 -8.58,13.22 -20.83,23.5 -36.86,30.84 -16.05,7.33 -34.05,10.99 -54.15,10.99 -25.41,0 -46.68,-3.72 -63.83,-11.12 -17.23,-7.4 -30.65,-18.54 -40.41,-33.46 -9.82,-14.86 -14.93,-31.69 -15.44,-50.49zm361.83 90.36l0 -281.28 37.32 0 0 281.28 -37.32 0zm172.03 -90.36l34.96 -3.14c1.63,14.15 5.49,25.74 11.58,34.84 6.09,9.03 15.52,16.36 28.28,21.99 12.77,5.58 27.18,8.39 43.16,8.39 14.21,0 26.71,-2.09 37.58,-6.36 10.87,-4.25 18.92,-10.07 24.22,-17.47 5.3,-7.4 7.99,-15.46 7.99,-24.1 0,-8.78 -2.56,-16.44 -7.66,-23.05 -5.11,-6.54 -13.55,-12.04 -25.33,-16.56 -7.53,-2.88 -24.23,-7.47 -50.1,-13.69 -25.86,-6.22 -43.93,-12.05 -54.27,-17.55 -13.42,-7.06 -23.38,-15.84 -29.92,-26.25 -6.62,-10.4 -9.89,-22.13 -9.89,-35.03 0,-14.28 4.06,-27.56 12.11,-39.87 8.06,-12.37 19.77,-21.74 35.29,-28.15 15.45,-6.42 32.68,-9.62 51.59,-9.62 20.83,0 39.22,3.33 55.13,10.07 15.92,6.68 28.16,16.57 36.73,29.67 8.58,13.02 13.17,27.82 13.83,44.32l-35.76 2.75c-1.9,-17.74 -8.38,-31.17 -19.44,-40.2 -11.07,-9.11 -27.44,-13.62 -49.04,-13.62 -22.52,0 -38.97,4.12 -49.24,12.37 -10.28,8.25 -15.45,18.21 -15.45,29.86 0,10.09 3.66,18.4 10.93,24.94 7.2,6.49 25.87,13.23 56.11,20.04 30.25,6.88 51.01,12.84 62.26,17.94 16.31,7.53 28.42,17.02 36.22,28.61 7.79,11.53 11.65,24.82 11.65,39.88 0,14.99 -4.26,29 -12.83,42.23 -8.58,13.22 -20.83,23.5 -36.86,30.84 -16.05,7.33 -34.05,10.99 -54.15,10.99 -25.41,0 -46.68,-3.72 -63.83,-11.12 -17.23,-7.4 -30.65,-18.54 -40.41,-33.46 -9.82,-14.86 -14.93,-31.69 -15.44,-50.49zm427.04 90.36l0 -248.27 -92.71 0 0 -33.01 222.74 0 0 33.01 -92.71 0 0 248.27 -37.32 0zm256.1 0l0 -281.28 37.32 0 0 281.28 -37.32 0zm264.34 0l-108.68 -281.28 40.33 0 73.06 204.41c5.84,16.37 10.81,31.7 14.74,46.03 4.32,-15.39 9.36,-30.7 15.12,-46.03l75.82 -204.41 37.98 0 -109.67 281.28 -38.7 0zm203.26 0l107.9 -281.28 40.92 0 114.51 281.28 -42.36 0 -32.54 -85.25 -118.45 0 -30.5 85.25 -39.48 0zm80.92 -115.49l95.86 0 -29.34 -77.99c-8.84,-23.7 -15.52,-43.27 -20.17,-58.73 -3.85,18.34 -9.03,36.34 -15.51,54.16l-30.84 82.56z"/>
   <g>
    <polygon class="fil7" points="16946.39,17348.71 17074.79,17348.71 17194.68,17721.18 17196.62,17721.18 17315.26,17348.71 17444.29,17348.71 17444.29,17872.85 17362.82,17872.85 17362.82,17451.66 17361.5,17451.66 17221.41,17872.85 17164.11,17872.85 17025.94,17451.66 17024.62,17451.66 17024.62,17872.85 16946.39,17872.85 "/>
    <path class="fil7" d="M18022.96 17471.61c-13.13,-18.77 -30.14,-32.44 -51.23,-41.01 -20.99,-8.61 -41.59,-13 -61.64,-13 -25.7,0 -49.07,4.9 -70.05,14.78 -21.09,9.91 -39.13,23.49 -54.35,40.76 -15.22,17.29 -26.85,37.45 -35.08,60.69 -8.14,23.18 -12.19,48.32 -12.19,75.49 0,28.67 3.97,54.72 11.9,78.52 7.96,23.64 19.29,44.04 33.95,61 14.74,17.1 32.43,30.34 52.93,39.63 20.53,9.4 43.68,14.09 69.41,14.09 26.63,0 50.19,-5.6 70.8,-16.67 20.5,-11.12 37.06,-25.78 49.73,-44.04l70.81 52.51c-22.03,29.18 -48.88,51.85 -80.64,67.79 -31.78,15.99 -68.93,24.09 -111.37,24.09 -38.86,0 -74.5,-6.8 -106.93,-20.38 -32.53,-13.59 -60.4,-32.53 -83.77,-57.01 -23.34,-24.49 -41.59,-53.61 -54.64,-87.27 -13.02,-33.85 -19.64,-71.19 -19.64,-112.26 0,-41.95 6.88,-79.77 20.69,-113.65 13.8,-33.74 32.72,-62.47 56.81,-86.16 24.01,-23.75 52.39,-41.92 85.08,-54.83 32.72,-12.88 68.26,-19.28 106.55,-19.28 15.89,0 32.53,1.62 49.74,4.82 17.28,3.19 33.92,8.18 49.82,14.88 15.89,6.6 30.81,14.86 44.8,24.77 14.1,9.77 26,21.66 35.75,35.53l-67.24 56.21z"/>
    <polygon class="fil7" points="18386.04,17430.2 18222.19,17430.2 18222.19,17348.71 18645.22,17348.71 18645.22,17430.2 18481.23,17430.2 18481.23,17872.85 18386.04,17872.85 "/>
    <polygon class="fil7" points="18780.92,17872.85 18882.41,17872.85 18882.41,17348.71 18780.92,17348.71 "/>
    <polygon class="fil7" points="1959.25,17648.47 16428.03,17648.47 16428.03,17577.66 1959.25,17577.66 "/>
   </g>
  </g>
 </g>
</svg>
