<?xml version="1.0" encoding="UTF-8"?>
<!DOCTYPE svg PUBLIC "-//W3C//DTD SVG 1.1//EN" "http://www.w3.org/Graphics/SVG/1.1/DTD/svg11.dtd">
<!-- Creator: CorelDRAW -->
<svg xmlns="http://www.w3.org/2000/svg" xml:space="preserve" width="237mm" height="53.78mm" version="1.1" style="shape-rendering:geometricPrecision; text-rendering:geometricPrecision; image-rendering:optimizeQuality; fill-rule:evenodd; clip-rule:evenodd"
viewBox="0 0 23700 5378"
 xmlns:xlink="http://www.w3.org/1999/xlink"
 xmlns:xodm="http://www.corel.com/coreldraw/odm/2003">
 <defs>
  <style type="text/css">
   <![CDATA[
    .fil0 {fill:#FEFEFE}
    .fil6 {fill:#F7931C}
    .fil4 {fill:#A23D97}
    .fil5 {fill:#A23D97}
    .fil3 {fill:#00A550}
    .fil1 {fill:#0060AE}
    .fil7 {fill:#6C6D70;fill-rule:nonzero}
    .fil2 {fill:#0060AE;fill-rule:nonzero}
   ]]>
  </style>
 </defs>
 <g id="Camada_x0020_1">
  <metadata id="CorelCorpID_0Corel-Layer"/>
  <g id="_2851475483392">
   <polygon class="fil0" points="2734.58,1071.66 3039.21,1576.49 3343.84,2081.31 3060.05,2593.06 2776.26,3104.8 2187.84,3111.72 1599.42,3118.63 1294.79,2613.81 990.16,2108.98 1273.95,1597.24 1557.74,1085.49 2146.16,1078.57 "/>
   <polygon class="fil0" points="4493.43,403.61 4798.06,908.44 5102.69,1413.26 4818.9,1925.01 4535.11,2436.75 3946.69,2443.67 3358.27,2450.58 3053.64,1945.75 2749.01,1440.93 3032.8,929.19 3316.59,417.44 3905.01,410.52 "/>
   <polygon class="fil0" points="5503.78,2232.09 5808.41,2736.92 6113.04,3241.74 5829.25,3753.48 5545.46,4265.23 4957.04,4272.15 4368.62,4279.06 4063.99,3774.23 3759.36,3269.41 4043.15,2757.66 4326.94,2245.92 4915.36,2239 "/>
   <polygon class="fil0" points="3748.33,2946.94 4052.95,3451.77 4357.59,3956.59 4073.8,4468.34 3790,4980.08 3201.58,4987 2613.16,4993.91 2308.54,4489.08 2003.91,3984.26 2287.7,3472.52 2571.49,2960.77 3159.91,2953.85 "/>
   <path class="fil1" d="M2771.93 925.34c23.21,0 48.38,14.14 60.47,33.95l639.34 1047.62c10.92,17.88 12.1,114.96 1.63,133.11l-613.44 1062.99c-12.12,21 -63.75,50.81 -88,50.81l-1227.3 0c-23.21,0 -48.37,-14.12 -60.47,-33.94l-639.34 -1047.61c-10.92,-17.9 -12.11,-114.95 -1.64,-133.11l613.44 -1062.98c58.51,-101.33 1143.08,-50.84 1315.31,-50.84zm-1196.86 154.33l-584.91 1013.54c-0.2,6.9 -0.11,14.52 0.27,21.41l601.05 984.88 1150.01 0 584.9 -1013.54c0.2,-6.89 0.11,-14.53 -0.26,-21.41l-601.05 -984.88 -1150.01 0z"/>
   <path class="fil2" d="M2472.46 2354.94c11.28,-14.38 21.63,-29.52 30.95,-45.34 37.41,-63.48 57.2,-136.19 57.2,-210.25 0,-55.95 -10.97,-110.25 -32.6,-161.39 -14.35,-33.92 -32.94,-65.46 -55.52,-94.22 119.57,56.31 223.99,143.55 301.96,255.61 -77.4,111.22 -181.44,198.85 -301.99,255.59zm-326.47 -455.03c-21.02,0 -41.29,3.27 -60.32,9.3l-73.11 -126.62c41.37,-7.25 83.67,-11.15 126.54,-11.53 2.24,0.36 4.55,0.55 6.89,0.55 68.64,0 132.41,21.2 185.11,57.4 86.08,59.13 142.64,158.25 142.64,270.34 0,102.22 -48.23,198.41 -128.19,259.99l-65.07 -112.71c39.91,-36.48 64.95,-88.95 64.95,-147.28 0,-110.14 -89.29,-199.44 -199.44,-199.44zm-157.2 76.72l-94.35 -163.41c10.28,-3.57 20.66,-6.92 31.11,-10.04l85.97 148.9c-8.24,7.53 -15.85,15.74 -22.73,24.55zm-42.19 119.33l-141.57 -245.21c16,-7.95 32.28,-15.36 48.82,-22.18l109.74 190.06c-10.51,23.7 -16.53,49.84 -16.99,77.33zm915.39 -19.8c-75.69,-117.49 -180.13,-215.53 -302.07,-283.53 -61.97,-34.56 -128.13,-61.24 -196.61,-79.27 -60.38,-15.9 -122.62,-25.09 -185.45,-27.41 -10.55,-0.8 -21.18,-1.2 -31.87,-1.2 -2.51,0 -4.98,0.22 -7.38,0.63 -57.8,0.51 -115.23,6.81 -171.33,18.78l-106.97 -185.28c-11.82,-20.49 -38.01,-27.5 -58.5,-15.68 -20.48,11.83 -27.5,38.02 -15.67,58.51l95.55 165.51c-51.78,16.91 -101.93,38.82 -149.61,65.41 -121.94,68 -226.39,166.04 -302.07,283.53 -12.8,19.89 -7.07,46.39 12.82,59.2 10.99,7.08 24.01,8.48 35.62,4.96l30.76 53.28c3.97,6.87 11.16,10.71 18.56,10.71 3.63,0 7.32,-0.93 10.69,-2.87 10.24,-5.92 13.75,-19.01 7.84,-29.25l-35.96 -62.27c10.92,-16.25 22.38,-32.01 34.36,-47.24l179.51 310.92c3.96,6.87 11.16,10.71 18.56,10.71 3.63,0 7.32,-0.92 10.69,-2.87 10.24,-5.91 13.75,-19.01 7.84,-29.25l-187.35 -324.49c12.35,-13.92 25.17,-27.33 38.41,-40.24l261.67 453.23c3.96,6.87 11.16,10.71 18.56,10.71 3.63,0 7.32,-0.92 10.69,-2.87 10.24,-5.91 13.75,-19.01 7.83,-29.25l-266.47 -461.54c13.63,-11.84 27.65,-23.16 42.03,-33.96l316.34 547.92c3.96,6.88 11.16,10.72 18.56,10.72 3.63,0 7.32,-0.93 10.69,-2.87 10.24,-5.92 13.75,-19.02 7.83,-29.26l-318.32 -551.36c14.82,-9.88 29.97,-19.24 45.44,-28.04l167.26 289.71c0.06,0.1 0.12,0.21 0.18,0.3l52.44 90.83 132.48 229.46c3.96,6.87 11.16,10.71 18.56,10.7 3.64,0 7.32,-0.92 10.69,-2.87 10.24,-5.91 13.75,-19 7.84,-29.25l-107.39 -185.98c22.77,12.65 48.28,20.98 75.41,23.87l102.47 177.48c3.97,6.87 11.17,10.71 18.57,10.71 3.63,0 7.31,-0.92 10.69,-2.87 10.23,-5.91 13.74,-19.01 7.83,-29.25l-90.56 -156.86c11.2,-1.56 22.11,-4.04 32.65,-7.38l84.6 146.53c0.84,2.24 1.86,4.44 3.09,6.58 1.21,2.09 2.59,4.03 4.07,5.83l7.49 12.97c1.59,4.07 3.76,7.77 6.38,11.05l119.72 207.37c7.94,13.75 22.33,21.42 37.14,21.42 7.26,0 14.61,-1.85 21.36,-5.74 20.49,-11.83 27.5,-38.02 15.68,-58.5l-95.55 -165.5c83.93,-27.34 162.73,-67.53 234.87,-119.85 86.22,-62.54 159.16,-139.62 216.81,-229.11 9.09,-14.12 9.09,-32.26 0,-46.38z"/>
   <path class="fil3" d="M2552.74 2810.8l1217.75 0c23.03,0 48.01,14.02 60.01,33.68l634.37 1039.47c10.83,17.75 12,114.07 1.61,132.08l-608.67 1054.72c-12.03,20.84 -63.25,50.42 -87.32,50.42l-1217.75 0c-23.03,0 -48,-14.01 -60,-33.68l-634.37 -1039.46c-10.83,-17.76 -12.02,-114.06 -1.62,-132.08l608.67 -1054.72c12.03,-20.84 63.26,-50.43 87.32,-50.43zm30.21 153.12l-580.37 1005.66c-0.2,6.84 -0.11,14.41 0.26,21.24l596.39 977.22 1141.06 0 580.36 -1005.65c0.2,-6.84 0.1,-14.42 -0.27,-21.25l-596.37 -977.22 -1141.06 0z"/>
   <path class="fil3" d="M2717.21 4185.01c-1.1,51.54 -1.1,131.96 -0.22,177.73 0.89,45.76 2.67,56.86 13.56,77.3 10.88,20.44 30.88,50.21 56.21,69.32 25.32,19.1 55.97,27.54 85.52,31.76 29.55,4.22 57.98,4.22 86.65,-3.33 28.65,-7.55 57.53,-22.66 82.41,-45.32 24.88,-22.65 45.76,-52.87 54.88,-81.53 8.87,-27.93 6.56,-54.41 4.79,-178.58l11.78 0c14.68,0 26.69,-12.01 26.69,-26.69l0 -12.71c0,-14.68 -12.01,-26.69 -26.69,-26.69l-12.55 0c-0.45,-47.01 -0.77,-101.05 -0.88,-156.33l13.43 0c14.68,0 26.69,-12.01 26.69,-26.69l0 -12.71c0,-14.68 -12.01,-26.69 -26.69,-26.69l-13.45 0c0.13,-82.9 0.83,-163.36 2.43,-221.81 3.55,-129.74 11.55,-151.07 24.66,-168.4 13.1,-17.33 31.32,-30.65 51.54,-39.76 20.21,-9.11 42.43,-13.99 87.08,-16.21 44.65,-2.23 111.75,-1.79 158.4,7.32 46.65,9.11 72.87,26.88 92.42,51.32 19.55,24.44 32.43,55.54 36.43,82.42 4,26.88 -0.89,49.54 -6.66,69.98 -5.78,20.43 -12.45,38.65 -28.22,60.65 -15.77,21.99 -40.65,47.76 -60.42,72.64 -19.77,24.88 -34.44,48.88 -42.88,70.87 -8.44,21.99 -10.66,41.98 -12.66,57.09 -1.08,8.18 -2.1,14.92 -2.88,20.94 -47.64,20.91 -80.92,68.5 -80.92,123.86 0,74.67 60.54,135.21 135.21,135.21 74.68,0 135.22,-60.54 135.22,-135.21 0,-68.48 -50.92,-125.06 -116.96,-133.98 0.24,-2.82 0.55,-5.68 0.97,-8.6 3.34,-23.1 13.55,-48.87 30.21,-72.42 16.67,-23.55 39.77,-44.87 57.77,-67.53 17.99,-22.66 30.87,-46.66 42.2,-76.65 11.34,-29.99 21.11,-65.97 21.55,-101.07 0.45,-35.1 -8.43,-69.32 -20.66,-99.09 -12.21,-29.77 -27.77,-55.09 -50.21,-76.42 -22.43,-21.33 -51.76,-38.65 -77.3,-48.87 -25.55,-10.22 -47.32,-13.34 -93.98,-14.45 -46.65,-1.11 -118.18,-0.22 -165.72,6.67 -47.55,6.89 -71.09,19.77 -91.09,31.99 -19.99,12.22 -36.43,23.77 -51.98,43.55 -15.55,19.77 -30.22,47.76 -38.44,70.42 -8.21,22.66 -9.99,39.98 -10.66,55.76 -0.66,15.77 -0.22,29.99 0,37.1 0.22,7.11 0.22,7.11 -41.1,49.98 -41.32,42.88 -123.96,128.63 -173.06,188.83 -49.09,60.21 -64.64,94.87 -73.53,121.97 -8.89,27.1 -11.11,46.65 -13.33,67.76 -2.22,21.1 -4.45,43.76 -5.56,95.3zm735.66 -127.92c31.85,0 57.67,25.82 57.67,57.67 0,31.84 -25.82,57.66 -57.67,57.66 -31.84,0 -57.66,-25.82 -57.66,-57.66 0,-31.85 25.82,-57.67 57.66,-57.67zm-453.21 109.18l20.22 0 -0.46 -156.33 -19.76 0c-14.68,0 -26.69,-12.01 -26.69,-26.69l0 -12.71c0,-14.68 12.01,-26.69 26.69,-26.69l19.55 0 -0.16 -54.25c-0.28,-91.03 -0.29,-94.88 -2.02,-95.2 -1.74,-0.31 -5.18,2.9 -17.51,14.39 -12.33,11.48 -33.53,31.24 -65.42,67.17 -31.88,35.93 -74.46,88.02 -101.07,128.64 -26.61,40.62 -37.26,69.75 -43.98,129.42 -6.72,59.66 -9.53,149.85 -2.52,207 7,57.14 23.81,81.23 44.54,98.32 20.73,17.09 45.37,27.17 68.62,29.14 23.25,1.96 45.1,-4.21 64.99,-16.54 19.89,-12.32 37.82,-30.81 46.78,-50.97 8.96,-20.17 8.96,-42.02 8.69,-142.06l-0.08 -26.55 -20.41 0c-14.68,0 -26.69,-12.01 -26.69,-26.69l0 -12.71c0,-14.68 12.01,-26.69 26.69,-26.69z"/>
   <path class="fil4" d="M4318.06 2099.04l1217.75 0c23.03,0 48.01,14.19 60.01,34.09l634.37 1052.11c10.83,17.97 12,115.46 1.61,133.69l-608.67 1067.55c-12.03,21.09 -63.26,51.03 -87.32,51.03l-1217.75 0c-23.03,0 -48,-14.18 -60,-34.09l-634.37 -1052.1c-10.83,-17.98 -12.02,-115.45 -1.63,-133.69l608.68 -1067.54c12.03,-21.09 63.26,-51.05 87.32,-51.05zm30.21 154.98l-580.37 1017.9c-0.2,6.92 -0.11,14.58 0.26,21.49l596.38 989.12 1141.07 0 580.36 -1017.89c0.2,-6.92 0.1,-14.59 -0.27,-21.51l-596.37 -989.11 -1141.06 0z"/>
   <path class="fil5" d="M4597.61 2940.52l0 -179.65 756.61 0 0 171.89 0 242.37 0 156.94 42.04 0 0 -156.94 0 -242.37c0,-52.89 -0.01,-105.78 0,-158.67 0,-66.24 8.81,-55.53 -105.09,-55.53l-635.77 0c-108.88,0 -99.83,-11.66 -99.83,60.82 0,53.71 0,107.43 0,161.14l0 31.91c-61.63,0 -93.82,-7.39 -125.51,27.03 -30.1,32.69 -21.61,77.82 -21.61,132.14 0,20.96 4.65,95.57 -2.15,108.39 -2.63,4.96 -49.91,51.19 -55.64,55.06l30.89 32.37c8.36,-12.25 22.34,-23.81 32.81,-34.35 50.66,-51 36.13,-23.47 36.13,-161.47 0,-118.83 -5.6,-116.86 105.08,-116.86 0,14.78 3.68,49.06 -4.39,59.04 -4.76,5.88 -26.94,27.19 -32.39,30.87l29.48 31.15c44.12,-29.16 111.16,-142.88 133.81,-86.81 8.19,20.28 -28.83,48.57 -50.98,70.87 -7.78,7.83 -50.93,47.75 -53.68,57.53 -2.03,7.21 -1.06,10.13 1.8,13.06 2.48,11.89 -1.66,1.71 5.77,11.63 19.77,26.36 35.39,62.41 20.5,95.96 -8.03,32.55 -38.5,55.6 -59.77,77.01 -16.38,16.48 -53.04,57.36 -68.96,68.09l29.48 31.16 48.73 -47.64 0.6 76.06 0 147.97 0 19.88c-31.56,0 -63.13,0.1 -94.69,-0.12 -18.4,-0.12 -27.97,1.56 -30.92,16.48 -1.83,9.29 -0.49,36.49 -0.49,47.63 0,40.51 1.59,56.48 21.61,78.22 21.62,23.48 42.36,27.16 72.96,27.04l598.99 -0.01 0 -42.31c-37.88,0 -599.48,4.48 -622.21,-3.06 -23.57,-7.82 -29.32,-27.06 -29.32,-59.88l0 -21.68 525.43 0 0 -42.31 -399.32 0 0 -19.88 0 -147.97 -0.02 -93.98c-0.38,-47.14 8.47,-23.41 34.05,-63.57 7.58,-11.9 16.96,-29.52 18.51,-47.05 10.17,-23.31 1.08,-74.35 -13.43,-97.87l-7.45 -9.47c-0.34,-0.36 -1.01,-1.06 -1.57,-1.51 -0.44,-7.4 2.74,-8.22 9.9,-15.21 5.55,-5.41 9.06,-9.04 14.52,-14.54 32.42,-32.63 73.55,-62.51 74.44,-99.8 0.84,-35.15 -21.74,-59.87 -49.03,-67.26 -19.72,-5.34 -36.58,0.11 -48.52,6.29 -15.12,7.81 -18.74,18.03 -31.4,26.57l0 -84.8zm168.13 158.84l42.04 0 0 -42.31 -42.04 0 0 42.31zm168.14 0l42.04 0 0 -42.31 -42.04 0 0 42.31zm84.07 0l42.03 0 0 -42.31 -42.03 0 0 42.31zm126.1 0l42.04 0 0 -42.31 -42.04 0 0 42.31zm-210.17 -211.56l42.04 0 0 -42.31 -42.04 0 0 42.31zm294.24 211.56l42.03 0 0 -42.31 -42.03 0 0 42.31zm-441.36 486.58l42.04 0 0 -42.31 -42.04 0 0 42.31zm-84.07 0l42.04 0 0 -42.31 -42.04 0 0 42.31zm84.07 -84.62l42.04 0 0 -42.31 -42.04 0 0 42.31zm63.05 -317.34l42.04 0 0 -42.31 -42.04 0 0 42.31zm84.07 0l42.04 0 0 -42.31 -42.04 0 0 42.31zm-21.02 190.41l42.04 0 0 -42.32 -42.04 0 0 42.32zm-126.1 0l42.04 0 0 -42.32 -42.04 0 0 42.32zm-84.07 0l42.04 0 0 -42.32 -42.04 0 0 42.32zm441.36 -190.41l42.04 0 0 -42.31 -42.04 0 0 42.31zm84.07 0l42.03 0 0 -42.31 -42.03 0 0 42.31zm-231.19 105.78l42.04 0 0 -42.31 -42.04 0 0 42.31zm-294.24 0l42.04 0 0 -42.31 -42.04 0 0 42.31zm735.6 -84.62l42.04 0 0 -42.31 -42.04 0 0 42.31zm-210.17 -232.71l42.03 0 0 -42.32 -42.03 0 0 42.32zm-420.34 0l42.03 0 0 -42.32 -42.03 0 0 42.32zm210.17 -84.63l42.03 0 0 -42.31 -42.03 0 0 42.31zm-210.17 0l42.03 0 0 -42.31 -42.03 0 0 42.31zm-126.1 0l42.03 0 0 -42.31 -42.03 0 0 42.31zm546.44 0l42.03 0 0 -42.31 -42.03 0 0 42.31zm-84.07 0l42.04 0 0 -42.31 -42.04 0 0 42.31zm281.11 846.74c-8.65,8.62 -8.03,22.1 -7.95,33.81l0.06 134.93 42.04 0c0,-29.97 0,-59.94 0,-89.91 0,-92.66 7.79,-48.71 10.51,-78.81 9.77,-12.95 22.18,-63.67 25.56,-83.22 6.04,-34.99 5.96,-61.99 5.96,-102.6 0,-37.05 7.26,-93.34 -6.96,-119.75 -15.51,-28.81 -51.07,-44.98 -87.61,-25.51 -6.56,-12.47 -14.2,-18.6 -27.99,-24.72 -19.01,-8.43 -29.61,-3.29 -48.2,-1.73 -3.72,-16.06 -14.13,-28.08 -27.28,-36.01 -17.1,-10.31 -31.53,-11.61 -54.16,-6.3 0,-32.9 6.94,-72.03 -21.99,-94.22 -11.78,-9.03 -23.33,-14.92 -43.72,-14.43 -17.39,0.42 -33.68,9.01 -42.67,18.06 -24.48,24.64 -17.73,61.71 -17.73,98.52 0,39.76 0,79.53 0,119.29l0 47.31c-6.35,1.71 -24.98,12.22 -31.45,15.94 -32.2,18.51 -52.61,53.72 -52.61,97.51 0,67.19 44.91,90.35 85.64,117.68 23.66,15.88 40.27,20.7 40.57,59.65 0.27,34.33 -0.11,68.89 -0.11,103.25l42.03 0c0,-33.5 -0.07,-67 0.01,-100.49 0.09,-41.93 -5.3,-54.7 -26.87,-76.09 -9.17,-9.09 -17.97,-13.94 -28.83,-21.23 -10.7,-7.18 -18.97,-12.74 -29.97,-20.08 -11.93,-7.97 -18.44,-11.93 -26.68,-23.39 -7.34,-10.21 -12.55,-24.04 -13.76,-39.3 0.65,-28.3 18.67,-57.72 42.03,-63.2l0 47.6 42.04 0 0 -145.16 -0.15 -167.04c0.64,-14.94 11.18,-30.74 27.2,-24.78 22.01,8.2 14.98,58.8 14.98,96.33 0,37.91 0,75.81 0,113.71l42.04 0c0,-17.99 -4.61,-85.3 5.73,-97.37 5.7,-6.66 14.22,-10.47 23.15,-6.04 17.69,8.77 13.15,30.45 13.15,55.81 0,22.92 0,45.84 0,68.76l42.04 0c0,-18.76 -0.94,-39.88 -0.15,-58.33 0.73,-17.18 13.63,-31.56 29.03,-23.93 15.4,7.64 13.21,22.98 13.15,45.23 -0.05,19.4 0,38.79 0,58.19l42.03 0c0,-18.77 -0.93,-39.89 -0.14,-58.33 0.74,-17.46 14.55,-32.93 30.72,-22.92 14.88,9.2 11.49,24.82 11.46,46.87 -0.03,20.21 0,40.42 0,60.64 0,37.06 -1.73,69.69 -8.05,100.5 -2.91,14.17 -6.7,29.97 -11.29,44.17 -4.57,14.1 -12.21,28.85 -14.81,41.13zm13.13 -866.68l0 252.66 42.04 0 0 -252.66c0,-37.37 5.68,-154.92 -7.04,-184.53 -25.87,-60.24 -86.02,-49.4 -140.08,-49.4 -42.04,0 -84.07,0 -126.11,0l0 42.32c263.19,0 231.19,-37.7 231.19,191.61z"/>
   <g>
    <path class="fil6" d="M3313.99 263.63l1227.29 0c23.21,0 48.39,14.13 60.48,33.95l639.34 1047.61c10.91,17.89 12.1,114.96 1.63,133.12l-613.44 1062.98c-12.12,21.01 -63.75,50.82 -88.01,50.82l-1227.29 0c-23.22,0 -48.37,-14.12 -60.47,-33.94l-639.34 -1047.61c-10.92,-17.9 -12.12,-114.96 -1.64,-133.12l613.44 -1062.98c12.13,-21 63.76,-50.83 88.01,-50.83zm30.44 154.32l-584.91 1013.55c-0.2,6.89 -0.11,14.52 0.26,21.4l601.06 984.88 1150.01 0 584.9 -1013.53c0.2,-6.89 0.11,-14.53 -0.27,-21.42l-601.05 -984.88 -1150 0z"/>
    <path class="fil6" d="M3368.04 1578.34l271.73 0 268.23 -444.78 -359.98 83.91c-29.24,6.82 -63.35,-12.54 -63.35,-42.57l0 0c0,-30.04 14.29,-58.01 43.53,-64.83l529.66 -123.46c54.43,-12.69 100.58,23.61 113.53,54.23l103.28 244.1 199.53 0c31.71,0 57.66,25.95 57.66,57.67l0 0c0,31.71 -25.95,57.66 -57.66,57.66l-233.57 0c-19.76,0 -37.28,-10.07 -47.68,-25.33 -11.82,-17.1 -55.05,-117.28 -65.76,-142.6l-134.63 210.01 158.45 164.35c29.27,30.36 29.27,75.1 -0.62,104.98l0 0.01c-30.99,28.75 -71.16,38.25 -112.04,-0.43l-185.52 -175.52 -89.06 134.82 -0.24 0.34c-10.62,20.04 -31.71,33.77 -55.85,33.77l-339.64 0c-34.75,0 -63.17,-28.42 -63.17,-63.17 0,-34.74 28.42,-63.16 63.17,-63.16zm833.49 -823.47c65.68,0 118.92,53.24 118.92,118.91 0,65.68 -53.24,118.92 -118.92,118.92 -65.67,0 -118.91,-53.24 -118.91,-118.92 0,-65.67 53.24,-118.91 118.91,-118.91zm-161.09 998.81c20.87,11.93 42.52,13.38 64.67,8.03l-57.57 222.07c14.54,-5.35 27.89,-10.53 36.11,-13.62 12.61,-4.74 13.15,-4.56 31.49,5.28 18.34,9.84 54.49,29.35 77.13,41.7 22.63,12.34 31.76,17.53 36.95,23.08 5.19,5.55 6.44,11.45 6.17,17.81 -0.27,6.35 -2.05,13.15 -5.54,18.16 -3.49,5.01 -8.68,8.23 -11.28,9.84 -2.59,1.61 -2.59,1.61 -48.94,1.88 -46.35,0.27 -139.04,0.8 -185.66,0.71 -46.61,-0.09 -47.15,-0.8 -44.1,-13.05 3.04,-12.25 9.67,-36.04 13.16,-48.56 3.49,-12.53 3.84,-13.8 4.54,-14.58 0.7,-0.78 1.76,-1.07 12.49,-4.02 8.1,-2.23 21.69,-5.96 37.56,-10.94l32.82 -243.79zm60.27 -113.85c14.22,0 25.75,11.53 25.75,25.76 0,14.22 -11.53,25.75 -25.75,25.75 -14.22,0 -25.75,-11.53 -25.75,-25.75 0,-14.23 11.53,-25.76 25.75,-25.76z"/>
   </g>
  </g>
  <g id="_2851475484304">
   <path class="fil2" d="M7641.46 2877.35c-147.94,0 -290.97,-20.06 -429.12,-60.16 -138.14,-40.11 -249.09,-92.24 -332.87,-156.41l147.06 -326.19c80.2,58.82 175.56,106.06 286.08,141.7 110.51,35.66 221.02,53.49 331.53,53.49 122.99,0 213.89,-18.28 272.71,-54.82 58.83,-36.54 88.23,-85.11 88.23,-145.71 0,-44.56 -17.38,-81.55 -52.13,-110.96 -34.76,-29.42 -79.33,-53.03 -133.68,-70.85 -54.37,-17.83 -127.89,-37.44 -220.59,-58.82 -142.58,-33.87 -259.33,-67.73 -350.24,-101.61 -90.9,-33.86 -168.89,-88.22 -233.95,-163.09 -65.06,-74.86 -97.59,-174.68 -97.59,-299.45 0,-108.72 29.41,-207.21 88.23,-295.44 58.83,-88.23 147.5,-158.19 266.04,-209.88 118.53,-51.7 263.35,-77.54 434.47,-77.54 119.42,0 236.16,14.26 350.24,42.78 114.08,28.52 213.9,69.52 299.46,122.99l-133.69 328.86c-172.89,-98.03 -345.79,-147.05 -518.69,-147.05 -121.21,0 -210.77,19.6 -268.7,58.82 -57.93,39.22 -86.89,90.9 -86.89,155.07 0,64.17 33.41,111.86 100.25,143.04 66.85,31.19 168.89,61.95 306.14,92.24 142.6,33.87 259.34,67.74 350.25,101.6 90.9,33.87 168.89,87.35 233.95,160.43 65.05,73.07 97.59,172 97.59,296.77 0,106.95 -29.86,204.53 -89.57,292.77 -59.72,88.23 -149.28,158.19 -268.7,209.88 -119.43,51.69 -264.7,77.54 -435.82,77.54zm1061.46 -1470.52l417.09 0 0 1438.43 -417.09 0 0 -1438.43zm208.54 -200.53c-76.64,0 -139.03,-22.28 -187.15,-66.84 -48.13,-44.55 -72.19,-99.81 -72.19,-165.77 0,-65.95 24.06,-121.2 72.19,-165.77 48.12,-44.55 110.51,-66.83 187.15,-66.83 76.65,0 139.03,21.38 187.16,64.16 48.12,42.78 72.19,96.26 72.19,160.42 0,69.51 -24.07,127 -72.19,172.45 -48.13,45.46 -110.51,68.18 -187.16,68.18zm1080.17 1660.35c-119.43,0 -236.18,-14.7 -350.24,-44.12 -114.08,-29.4 -204.99,-66.39 -272.73,-110.94l139.03 -299.46c64.18,40.99 141.71,74.42 232.62,100.27 90.9,25.83 180.02,38.76 267.37,38.76 176.45,0 264.68,-43.67 264.68,-131.01 0,-41 -24.06,-70.4 -72.18,-88.23 -48.13,-17.83 -122.1,-32.97 -221.92,-45.45 -117.64,-17.83 -214.79,-38.32 -291.42,-61.49 -76.66,-23.18 -143.05,-64.18 -199.19,-123 -56.16,-58.81 -84.23,-142.59 -84.23,-251.33 0,-90.9 26.3,-171.55 78.87,-241.95 52.59,-70.42 129.23,-125.22 229.95,-164.43 100.7,-39.23 219.68,-58.83 356.93,-58.83 101.6,0 202.76,11.14 303.46,33.43 100.71,22.28 184.03,53.02 249.99,92.23l-139.03 296.77c-126.55,-71.28 -264.7,-106.94 -414.42,-106.94 -89.13,0 -155.96,12.48 -200.52,37.43 -44.57,24.96 -66.85,57.04 -66.85,96.26 0,44.55 24.07,75.76 72.19,93.57 48.13,17.83 124.77,34.76 229.94,50.8 117.63,19.61 213.88,40.56 288.75,62.83 74.87,22.28 139.93,62.84 195.18,121.65 55.26,58.83 82.88,140.82 82.88,245.99 0,89.11 -26.73,168.43 -80.21,237.95 -53.47,69.52 -131.45,123.44 -233.94,161.76 -102.49,38.33 -224.14,57.48 -364.96,57.48zm1807.41 -1925.04c172.89,0 323.51,33.86 451.85,101.6 128.33,67.74 228.15,167.55 299.45,299.45 71.3,131.9 106.94,291.43 106.94,478.59l0 1024.01 -433.12 0 0 -449.18 -855.58 0 0 449.18 -427.79 0 0 -1024.01c0,-187.16 35.65,-346.69 106.95,-478.59 71.29,-131.9 171.11,-231.71 299.45,-299.45 128.33,-67.74 278.95,-101.6 451.85,-101.6zm425.12 1106.9l0 -267.37c0,-155.06 -38.33,-272.26 -114.98,-351.58 -76.64,-79.32 -180.91,-118.98 -312.82,-118.98 -133.68,0 -238.4,39.66 -314.15,118.98 -75.76,79.32 -113.63,196.52 -113.63,351.58l0 267.37 855.58 0zm1315.44 818.14c-119.44,0 -236.18,-14.7 -350.25,-44.12 -114.08,-29.4 -204.99,-66.39 -272.72,-110.94l139.03 -299.46c64.17,40.99 141.7,74.42 232.61,100.27 90.9,25.83 180.03,38.76 267.37,38.76 176.46,0 264.69,-43.67 264.69,-131.01 0,-41 -24.07,-70.4 -72.19,-88.23 -48.13,-17.83 -122.1,-32.97 -221.92,-45.45 -117.63,-17.83 -214.78,-38.32 -291.42,-61.49 -76.65,-23.18 -143.05,-64.18 -199.19,-123 -56.15,-58.81 -84.22,-142.59 -84.22,-251.33 0,-90.9 26.29,-171.55 78.87,-241.95 52.58,-70.42 129.22,-125.22 229.94,-164.43 100.7,-39.23 219.69,-58.83 356.93,-58.83 101.61,0 202.76,11.14 303.46,33.43 100.71,22.28 184.04,53.02 249.99,92.23l-139.03 296.77c-126.55,-71.28 -264.69,-106.94 -414.42,-106.94 -89.12,0 -155.96,12.48 -200.52,37.43 -44.57,24.96 -66.85,57.04 -66.85,96.26 0,44.55 24.07,75.76 72.19,93.57 48.13,17.83 124.77,34.76 229.94,50.8 117.64,19.61 213.89,40.56 288.75,62.83 74.87,22.28 139.93,62.84 195.19,121.65 55.25,58.83 82.87,140.82 82.87,245.99 0,89.11 -26.73,168.43 -80.2,237.95 -53.47,69.52 -131.46,123.44 -233.95,161.76 -102.49,38.33 -224.14,57.48 -364.95,57.48zm1419.72 0c-119.43,0 -236.18,-14.7 -350.25,-44.12 -114.08,-29.4 -204.99,-66.39 -272.72,-110.94l139.03 -299.46c64.18,40.99 141.7,74.42 232.61,100.27 90.9,25.83 180.03,38.76 267.37,38.76 176.46,0 264.69,-43.67 264.69,-131.01 0,-41 -24.07,-70.4 -72.18,-88.23 -48.14,-17.83 -122.11,-32.97 -221.92,-45.45 -117.64,-17.83 -214.79,-38.32 -291.43,-61.49 -76.65,-23.18 -143.05,-64.18 -199.19,-123 -56.15,-58.81 -84.22,-142.59 -84.22,-251.33 0,-90.9 26.3,-171.55 78.87,-241.95 52.59,-70.42 129.23,-125.22 229.94,-164.43 100.71,-39.23 219.69,-58.83 356.94,-58.83 101.6,0 202.75,11.14 303.46,33.43 100.7,22.28 184.03,53.02 249.99,92.23l-139.03 296.77c-126.56,-71.28 -264.7,-106.94 -414.42,-106.94 -89.13,0 -155.96,12.48 -200.53,37.43 -44.56,24.96 -66.84,57.04 -66.84,96.26 0,44.55 24.06,75.76 72.18,93.57 48.13,17.83 124.77,34.76 229.94,50.8 117.64,19.61 213.89,40.56 288.76,62.83 74.86,22.28 139.93,62.84 195.18,121.65 55.26,58.83 82.88,140.82 82.88,245.99 0,89.11 -26.74,168.43 -80.21,237.95 -53.47,69.52 -131.46,123.44 -233.95,161.76 -102.48,38.33 -224.14,57.48 -364.95,57.48zm935.79 -1459.82l417.09 0 0 1438.43 -417.09 0 0 -1438.43zm208.54 -200.53c-76.64,0 -139.03,-22.28 -187.15,-66.84 -48.13,-44.55 -72.2,-99.81 -72.2,-165.77 0,-65.95 24.07,-121.2 72.2,-165.77 48.12,-44.55 110.51,-66.83 187.15,-66.83 76.65,0 139.03,21.38 187.16,64.16 48.12,42.78 72.19,96.26 72.19,160.42 0,69.51 -24.07,127 -72.19,172.45 -48.13,45.46 -110.51,68.18 -187.16,68.18zm1080.17 1660.35c-119.43,0 -236.18,-14.7 -350.25,-44.12 -114.07,-29.4 -204.99,-66.39 -272.72,-110.94l139.03 -299.46c64.18,40.99 141.7,74.42 232.62,100.27 90.89,25.83 180.02,38.76 267.36,38.76 176.46,0 264.69,-43.67 264.69,-131.01 0,-41 -24.06,-70.4 -72.18,-88.23 -48.13,-17.83 -122.1,-32.97 -221.92,-45.45 -117.64,-17.83 -214.79,-38.32 -291.43,-61.49 -76.65,-23.18 -143.04,-64.18 -199.19,-123 -56.15,-58.81 -84.22,-142.59 -84.22,-251.33 0,-90.9 26.3,-171.55 78.87,-241.95 52.59,-70.42 129.23,-125.22 229.94,-164.43 100.71,-39.23 219.69,-58.83 356.94,-58.83 101.6,0 202.75,11.14 303.46,33.43 100.71,22.28 184.03,53.02 249.99,92.23l-139.03 296.77c-126.55,-71.28 -264.7,-106.94 -414.42,-106.94 -89.13,0 -155.96,12.48 -200.53,37.43 -44.56,24.96 -66.84,57.04 -66.84,96.26 0,44.55 24.06,75.76 72.18,93.57 48.14,17.83 124.78,34.76 229.95,50.8 117.63,19.61 213.88,40.56 288.75,62.83 74.87,22.28 139.93,62.84 195.18,121.65 55.26,58.83 82.88,140.82 82.88,245.99 0,89.11 -26.74,168.43 -80.21,237.95 -53.47,69.52 -131.45,123.44 -233.94,161.76 -102.49,38.33 -224.14,57.48 -364.96,57.48zm1802.06 -90.9c-41,30.3 -91.35,53.02 -151.06,68.18 -59.72,15.15 -121.65,22.72 -185.83,22.72 -172.89,0 -305.68,-43.67 -398.37,-131.01 -92.69,-87.33 -139.03,-215.67 -139.03,-385l0 -1261.97 417.09 0 0 350.24 355.6 0 0 320.84 -355.6 0 0 585.53c0,60.61 15.16,107.4 45.46,140.38 30.29,32.97 73.97,49.46 131.01,49.46 64.16,0 121.2,-17.82 171.1,-53.48l109.63 294.11zm235.28 -1368.92l417.09 0 0 1438.43 -417.09 0 0 -1438.43zm208.55 -200.53c-76.64,0 -139.03,-22.28 -187.15,-66.84 -48.13,-44.55 -72.2,-99.81 -72.2,-165.77 0,-65.95 24.07,-121.2 72.2,-165.77 48.12,-44.55 110.51,-66.83 187.15,-66.83 76.65,0 139.03,21.38 187.16,64.16 48.12,42.78 72.18,96.26 72.18,160.42 0,69.51 -24.06,127 -72.18,172.45 -48.13,45.46 -110.51,68.18 -187.16,68.18zm2023.97 200.53l-606.92 1438.43 -430.47 0 -604.24 -1438.43 430.46 0 398.37 978.56 411.74 -978.56 401.06 0zm1590.84 0l0 1438.43 -398.38 0 0 -165.76c-103.38,124.77 -253.1,187.15 -449.17,187.15 -135.48,0 -258.01,-30.29 -367.64,-90.9 -109.61,-60.61 -195.62,-147.05 -258,-259.35 -62.39,-112.29 -93.58,-242.4 -93.58,-390.35 0,-147.94 31.19,-278.07 93.58,-390.36 62.38,-112.3 148.39,-198.74 258,-259.35 109.63,-60.59 232.16,-90.9 367.64,-90.9 183.59,0 327.08,57.93 430.45,173.79l0 -152.4 417.1 0zm-775.37 1117.59c105.16,0 192.51,-36.09 262.02,-108.27 69.52,-72.2 104.27,-168.9 104.27,-290.1 0,-121.21 -34.75,-217.91 -104.27,-290.09 -69.51,-72.2 -156.86,-108.29 -262.02,-108.29 -106.94,0 -195.17,36.09 -264.68,108.29 -69.52,72.18 -104.28,168.88 -104.28,290.09 0,121.2 34.76,217.9 104.28,290.1 69.51,72.18 157.74,108.27 264.68,108.27z"/>
   <path class="fil7" d="M6812.71 3592.04l33.5 -3.02c1.57,13.56 5.26,24.66 11.1,33.39 5.83,8.65 14.87,15.67 27.1,21.07 12.24,5.34 26.05,8.04 41.35,8.04 13.62,0 25.6,-2.01 36.02,-6.09 10.41,-4.08 18.12,-9.66 23.21,-16.75 5.08,-7.09 7.65,-14.81 7.65,-23.09 0,-8.41 -2.45,-15.75 -7.34,-22.08 -4.89,-6.27 -12.98,-11.55 -24.27,-15.87 -7.22,-2.77 -23.22,-7.16 -48.01,-13.12 -24.78,-5.97 -42.1,-11.55 -52.01,-16.82 -12.85,-6.77 -22.39,-15.18 -28.67,-25.16 -6.34,-9.96 -9.47,-21.2 -9.47,-33.56 0,-13.68 3.89,-26.41 11.6,-38.21 7.73,-11.85 18.95,-20.83 33.82,-26.98 14.81,-6.14 31.31,-9.22 49.44,-9.22 19.96,0 37.58,3.2 52.83,9.66 15.25,6.4 26.98,15.87 35.19,28.43 8.22,12.47 12.62,26.65 13.25,42.47l-34.26 2.63c-1.82,-17 -8.04,-29.86 -18.64,-38.52 -10.6,-8.72 -26.28,-13.05 -46.99,-13.05 -21.58,0 -37.33,3.95 -47.17,11.85 -9.86,7.91 -14.82,17.45 -14.82,28.62 0,9.66 3.51,17.63 10.48,23.9 6.9,6.22 24.79,12.67 53.77,19.2 28.99,6.59 48.88,12.3 59.66,17.19 15.63,7.22 27.23,16.31 34.7,27.42 7.47,11.05 11.17,23.78 11.17,38.21 0,14.36 -4.08,27.79 -12.3,40.46 -8.21,12.68 -19.95,22.53 -35.32,29.56 -15.37,7.02 -32.63,10.53 -51.88,10.53 -24.35,0 -44.74,-3.57 -61.17,-10.66 -16.51,-7.09 -29.37,-17.76 -38.72,-32.06 -9.41,-14.24 -14.3,-30.36 -14.8,-48.37zm346.73 86.58l0 -269.53 35.75 0 0 269.53 -35.75 0zm164.84 -86.58l33.5 -3.02c1.57,13.56 5.26,24.66 11.1,33.39 5.83,8.65 14.87,15.67 27.1,21.07 12.24,5.34 26.05,8.04 41.36,8.04 13.61,0 25.59,-2.01 36.01,-6.09 10.41,-4.08 18.12,-9.66 23.21,-16.75 5.08,-7.09 7.66,-14.81 7.66,-23.09 0,-8.41 -2.46,-15.75 -7.35,-22.08 -4.89,-6.27 -12.98,-11.55 -24.27,-15.87 -7.22,-2.77 -23.21,-7.16 -48.01,-13.12 -24.77,-5.97 -42.1,-11.55 -52.01,-16.82 -12.85,-6.77 -22.39,-15.18 -28.66,-25.16 -6.35,-9.96 -9.48,-21.2 -9.48,-33.56 0,-13.68 3.89,-26.41 11.6,-38.21 7.73,-11.85 18.95,-20.83 33.82,-26.98 14.81,-6.14 31.31,-9.22 49.44,-9.22 19.96,0 37.58,3.2 52.83,9.66 15.25,6.4 26.98,15.87 35.19,28.43 8.22,12.47 12.62,26.65 13.25,42.47l-34.26 2.63c-1.82,-17 -8.04,-29.86 -18.64,-38.52 -10.6,-8.72 -26.28,-13.05 -46.99,-13.05 -21.58,0 -37.33,3.95 -47.17,11.85 -9.85,7.91 -14.82,17.45 -14.82,28.62 0,9.66 3.51,17.63 10.48,23.9 6.9,6.22 24.79,12.67 53.77,19.2 28.99,6.59 48.88,12.3 59.66,17.19 15.63,7.22 27.23,16.31 34.7,27.42 7.47,11.05 11.17,23.78 11.17,38.21 0,14.36 -4.08,27.79 -12.3,40.46 -8.21,12.68 -19.95,22.53 -35.32,29.56 -15.37,7.02 -32.63,10.53 -51.88,10.53 -24.35,0 -44.74,-3.57 -61.17,-10.66 -16.51,-7.09 -29.37,-17.76 -38.72,-32.06 -9.41,-14.24 -14.3,-30.36 -14.8,-48.37zm409.21 86.58l0 -237.91 -88.84 0 0 -31.62 213.45 0 0 31.62 -88.84 0 0 237.91 -35.77 0zm240.14 0l0 -269.53 194.62 0 0 31.62 -158.86 0 0 82.81 148.69 0 0 31.63 -148.69 0 0 91.85 165.26 0 0 31.62 -201.02 0zm327.53 0l0 -269.53 53.46 0 63.73 190.8c5.91,17.74 10.17,31.05 12.87,39.9 3.07,-9.8 7.91,-24.23 14.43,-43.23l64.87 -187.47 47.75 0 0 269.53 -34.26 0 0 -225.49 -78.68 225.49 -32.12 0 -77.79 -229.63 0 229.63 -34.26 0zm362.73 0l103.4 -269.53 39.21 0 109.73 269.53 -40.6 0 -31.17 -81.69 -113.51 0 -29.23 81.69 -37.83 0zm77.55 -110.67l91.85 0 -28.11 -74.73c-8.47,-22.71 -14.87,-41.47 -19.33,-56.28 -3.69,17.57 -8.65,34.83 -14.87,51.89l-29.54 79.12zm364.48 110.67l0 -269.53 36.64 0 141.42 211.56 0 -211.56 34.25 0 0 269.53 -36.63 0 -141.43 -211.56 0 211.56 -34.25 0zm320.64 0l103.39 -269.53 39.22 0 109.72 269.53 -40.59 0 -31.18 -81.69 -113.5 0 -29.23 81.69 -37.83 0zm77.54 -110.67l91.86 0 -28.12 -74.73c-8.47,-22.71 -14.87,-41.47 -19.32,-56.28 -3.7,17.57 -8.66,34.83 -14.87,51.89l-29.55 79.12zm473.03 16.12l35.76 9.04c-7.47,29.3 -20.89,51.57 -40.28,66.93 -19.38,15.38 -43.1,23.09 -71.15,23.09 -28.98,0 -52.58,-5.89 -70.77,-17.75 -18.2,-11.79 -32,-28.92 -41.47,-51.32 -9.47,-22.46 -14.25,-46.49 -14.25,-72.22 0,-28.04 5.34,-52.51 16.07,-73.4 10.73,-20.89 25.98,-36.76 45.74,-47.63 19.76,-10.85 41.53,-16.24 65.24,-16.24 26.98,0 49.63,6.84 67.95,20.58 18.38,13.73 31.18,33 38.4,57.85l-35 8.27c-6.22,-19.56 -15.32,-33.87 -27.18,-42.78 -11.85,-8.97 -26.79,-13.43 -44.79,-13.43 -20.65,0 -37.96,4.96 -51.83,14.87 -13.86,9.91 -23.65,23.27 -29.23,39.96 -5.65,16.76 -8.47,34.01 -8.47,51.77 0,22.89 3.33,42.91 9.98,59.97 6.64,17.13 17,29.87 31.05,38.34 14.05,8.47 29.23,12.67 45.61,12.67 19.96,0 36.77,-5.76 50.57,-17.25 13.8,-11.54 23.15,-28.61 28.05,-51.32zm163.84 94.55l0 -269.53 35.76 0 0 269.53 -35.76 0zm165.6 -131.19c0,-44.67 12.05,-79.68 36.08,-104.97 24.02,-25.28 55.01,-37.89 93.04,-37.89 24.91,0 47.3,5.96 67.32,17.82 19.95,11.86 35.19,28.42 45.68,49.69 10.47,21.21 15.74,45.3 15.74,72.22 0,27.28 -5.52,51.75 -16.56,73.27 -11.05,21.58 -26.67,37.89 -46.87,48.94 -20.26,11.11 -42.1,16.62 -65.51,16.62 -25.4,0 -48.05,-6.14 -68.06,-18.38 -19.96,-12.23 -35.14,-28.92 -45.43,-50.12 -10.29,-21.14 -15.43,-43.55 -15.43,-67.2zm36.89 0.63c0,32.43 8.72,57.97 26.17,76.6 17.43,18.64 39.34,27.98 65.68,27.98 26.85,0 48.88,-9.41 66.26,-28.23 17.31,-18.82 25.97,-45.55 25.97,-80.18 0,-21.89 -3.7,-41.03 -11.1,-57.34 -7.41,-16.32 -18.27,-28.99 -32.5,-37.96 -14.31,-8.98 -30.31,-13.49 -48.07,-13.49 -25.21,0 -46.92,8.66 -65.11,25.97 -18.2,17.32 -27.3,46.18 -27.3,86.65zm344.41 130.56l0 -269.53 36.63 0 141.43 211.56 0 -211.56 34.25 0 0 269.53 -36.64 0 -141.42 -211.56 0 211.56 -34.25 0zm320.63 0l103.4 -269.53 39.21 0 109.73 269.53 -40.59 0 -31.18 -81.69 -113.51 0 -29.23 81.69 -37.83 0zm77.55 -110.67l91.85 0 -28.11 -74.73c-8.47,-22.71 -14.87,-41.47 -19.33,-56.28 -3.69,17.57 -8.65,34.83 -14.87,51.89l-29.54 79.12zm279.53 110.67l0 -269.53 35.76 0 0 237.91 132.51 0 0 31.62 -168.27 0zm379.41 0l0 -269.53 92.85 0c20.96,0 36.96,1.25 48,3.83 15.44,3.57 28.62,10.04 39.53,19.32 14.24,12.04 24.84,27.35 31.87,46.05 7.09,18.69 10.61,40.09 10.61,64.12 0,20.45 -2.39,38.59 -7.16,54.39 -4.77,15.81 -10.91,28.93 -18.38,39.28 -7.53,10.35 -15.69,18.51 -24.6,24.41 -8.85,5.95 -19.57,10.48 -32.12,13.55 -12.61,3.07 -27.05,4.58 -43.35,4.58l-97.25 0zm35.76 -31.62l57.47 0c17.76,0 31.68,-1.63 41.79,-4.96 10.09,-3.32 18.13,-7.96 24.16,-13.99 8.4,-8.47 14.98,-19.89 19.69,-34.2 4.71,-14.3 7.09,-31.61 7.09,-52.01 0,-28.23 -4.64,-49.93 -13.86,-65.11 -9.23,-15.2 -20.46,-25.36 -33.7,-30.5 -9.53,-3.7 -24.9,-5.52 -46.11,-5.52l-56.53 0 0 206.29zm314.8 31.62l0 -269.53 194.62 0 0 31.62 -158.86 0 0 82.81 148.7 0 0 31.63 -148.7 0 0 91.85 165.26 0 0 31.62 -201.02 0zm431.37 0l0 -269.53 35.75 0 0 237.91 132.51 0 0 31.62 -168.26 0zm259.26 0l103.4 -269.53 39.21 0 109.73 269.53 -40.59 0 -31.18 -81.69 -113.5 0 -29.24 81.69 -37.83 0zm77.55 -110.67l91.86 0 -28.12 -74.73c-8.47,-22.71 -14.87,-41.47 -19.32,-56.28 -3.7,17.57 -8.66,34.83 -14.87,51.89l-29.55 79.12zm279.54 110.67l0 -269.53 101.13 0c20.58,0 37.08,2.69 49.57,8.16 12.42,5.45 22.14,13.85 29.17,25.21 7.09,11.29 10.6,23.16 10.6,35.58 0,11.48 -3.14,22.34 -9.34,32.5 -6.22,10.16 -15.63,18.38 -28.24,24.65 16.31,4.78 28.86,12.93 37.58,24.47 8.78,11.49 13.18,25.1 13.18,40.79 0,12.67 -2.7,24.4 -8.03,35.25 -5.33,10.85 -11.93,19.2 -19.76,25.1 -7.85,5.84 -17.71,10.29 -29.49,13.31 -11.87,3 -26.36,4.51 -43.55,4.51l-102.82 0zm35.75 -156.23l58.29 0c15.81,0 27.17,-1.05 34.01,-3.13 9.09,-2.7 15.93,-7.21 20.51,-13.49 4.58,-6.28 6.9,-14.12 6.9,-23.59 0,-8.98 -2.13,-16.88 -6.46,-23.65 -4.27,-6.84 -10.41,-11.54 -18.39,-14.05 -7.96,-2.51 -21.63,-3.77 -40.96,-3.77l-53.9 0 0 81.68zm0 124.61l67.14 0c11.54,0 19.63,-0.45 24.34,-1.32 8.16,-1.44 15.05,-3.89 20.58,-7.34 5.52,-3.46 10.03,-8.47 13.61,-15.06 3.58,-6.58 5.33,-14.18 5.33,-22.77 0,-10.11 -2.56,-18.82 -7.78,-26.29 -5.14,-7.47 -12.29,-12.67 -21.45,-15.69 -9.09,-3.01 -22.27,-4.51 -39.4,-4.51l-62.37 0 0 92.98zm283.87 -99.57c0,-44.67 12.05,-79.68 36.08,-104.97 24.02,-25.28 55.01,-37.89 93.04,-37.89 24.9,0 47.3,5.96 67.31,17.82 19.96,11.86 35.2,28.42 45.68,49.69 10.48,21.21 15.75,45.3 15.75,72.22 0,27.28 -5.53,51.75 -16.56,73.27 -11.05,21.58 -26.67,37.89 -46.87,48.94 -20.27,11.11 -42.1,16.62 -65.51,16.62 -25.4,0 -48.05,-6.14 -68.06,-18.38 -19.96,-12.23 -35.14,-28.92 -45.43,-50.12 -10.29,-21.14 -15.43,-43.55 -15.43,-67.2zm36.88 0.63c0,32.43 8.73,57.97 26.18,76.6 17.43,18.64 39.33,27.98 65.68,27.98 26.85,0 48.88,-9.41 66.26,-28.23 17.31,-18.82 25.97,-45.55 25.97,-80.18 0,-21.89 -3.7,-41.03 -11.1,-57.34 -7.42,-16.32 -18.27,-28.99 -32.51,-37.96 -14.3,-8.98 -30.3,-13.49 -48.06,-13.49 -25.21,0 -46.92,8.66 -65.12,25.97 -18.19,17.32 -27.3,46.18 -27.3,86.65zm345.54 130.56l0 -269.53 119.46 0c24.03,0 42.28,2.45 54.77,7.27 12.49,4.83 22.46,13.37 29.93,25.61 7.46,12.23 11.17,25.78 11.17,40.59 0,19.13 -6.22,35.25 -18.58,48.37 -12.36,13.11 -31.43,21.39 -57.28,24.97 9.47,4.52 16.63,9.03 21.52,13.43 10.42,9.53 20.27,21.52 29.49,35.88l46.62 73.41 -44.55 0 -35.63 -56.08c-10.36,-16.26 -18.96,-28.62 -25.67,-37.21 -6.78,-8.6 -12.79,-14.56 -18.12,-18.02 -5.27,-3.38 -10.73,-5.76 -16.25,-7.14 -4.02,-0.82 -10.6,-1.26 -19.83,-1.26l-41.29 0 0 119.71 -35.76 0zm35.76 -150.57l76.55 0c16.31,0 28.98,-1.7 38.14,-5.09 9.16,-3.33 16.13,-8.71 20.83,-16.18 4.77,-7.4 7.16,-15.44 7.16,-24.16 0,-12.74 -4.58,-23.27 -13.81,-31.5 -9.22,-8.22 -23.78,-12.29 -43.67,-12.29l-85.2 0 0 89.22zm283.75 150.57l103.4 -269.53 39.21 0 109.73 269.53 -40.6 0 -31.17 -81.69 -113.51 0 -29.23 81.69 -37.83 0zm77.55 -110.67l91.85 0 -28.11 -74.73c-8.48,-22.71 -14.87,-41.47 -19.33,-56.28 -3.69,17.57 -8.65,34.83 -14.87,51.89l-29.54 79.12zm321.62 110.67l0 -237.91 -88.84 0 0 -31.62 213.45 0 0 31.62 -88.84 0 0 237.91 -35.77 0zm228.47 -131.19c0,-44.67 12.05,-79.68 36.08,-104.97 24.02,-25.28 55.01,-37.89 93.04,-37.89 24.91,0 47.3,5.96 67.32,17.82 19.95,11.86 35.19,28.42 45.68,49.69 10.47,21.21 15.74,45.3 15.74,72.22 0,27.28 -5.52,51.75 -16.56,73.27 -11.05,21.58 -26.67,37.89 -46.86,48.94 -20.27,11.11 -42.11,16.62 -65.52,16.62 -25.4,0 -48.05,-6.14 -68.06,-18.38 -19.96,-12.23 -35.14,-28.92 -45.43,-50.12 -10.29,-21.14 -15.43,-43.55 -15.43,-67.2zm36.89 0.63c0,32.43 8.72,57.97 26.17,76.6 17.43,18.64 39.34,27.98 65.68,27.98 26.85,0 48.88,-9.41 66.26,-28.23 17.31,-18.82 25.98,-45.55 25.98,-80.18 0,-21.89 -3.71,-41.03 -11.11,-57.34 -7.41,-16.32 -18.27,-28.99 -32.5,-37.96 -14.31,-8.98 -30.31,-13.49 -48.07,-13.49 -25.21,0 -46.92,8.66 -65.11,25.97 -18.2,17.32 -27.3,46.18 -27.3,86.65zm64.75 -155.54l24.09 -51.57 43.67 0 -40.28 51.57 -27.48 0zm280.79 286.1l0 -269.53 119.45 0c24.03,0 42.28,2.45 54.77,7.27 12.49,4.83 22.47,13.37 29.94,25.61 7.45,12.23 11.16,25.78 11.16,40.59 0,19.13 -6.21,35.25 -18.58,48.37 -12.36,13.11 -31.43,21.39 -57.28,24.97 9.48,4.52 16.63,9.03 21.53,13.43 10.41,9.53 20.26,21.52 29.48,35.88l46.63 73.41 -44.56 0 -35.63 -56.08c-10.36,-16.26 -18.95,-28.62 -25.66,-37.21 -6.78,-8.6 -12.8,-14.56 -18.13,-18.02 -5.27,-3.38 -10.73,-5.76 -16.25,-7.14 -4.02,-0.82 -10.6,-1.26 -19.83,-1.26l-41.29 0 0 119.71 -35.75 0zm35.75 -150.57l76.55 0c16.31,0 28.98,-1.7 38.14,-5.09 9.16,-3.33 16.13,-8.71 20.83,-16.18 4.77,-7.4 7.16,-15.44 7.16,-24.16 0,-12.74 -4.58,-23.27 -13.81,-31.5 -9.22,-8.22 -23.78,-12.29 -43.66,-12.29l-85.21 0 0 89.22zm319.33 150.57l0 -269.53 35.76 0 0 269.53 -35.76 0zm165.59 -131.19c0,-44.67 12.05,-79.68 36.08,-104.97 24.02,-25.28 55.01,-37.89 93.04,-37.89 24.91,0 47.3,5.96 67.32,17.82 19.96,11.86 35.19,28.42 45.68,49.69 10.47,21.21 15.74,45.3 15.74,72.22 0,27.28 -5.52,51.75 -16.56,73.27 -11.05,21.58 -26.67,37.89 -46.86,48.94 -20.27,11.11 -42.1,16.62 -65.51,16.62 -25.41,0 -48.06,-6.14 -68.07,-18.38 -19.96,-12.23 -35.14,-28.92 -45.43,-50.12 -10.29,-21.14 -15.43,-43.55 -15.43,-67.2zm36.89 0.63c0,32.43 8.72,57.97 26.17,76.6 17.44,18.64 39.34,27.98 65.68,27.98 26.85,0 48.88,-9.41 66.26,-28.23 17.31,-18.82 25.98,-45.55 25.98,-80.18 0,-21.89 -3.71,-41.03 -11.11,-57.34 -7.41,-16.32 -18.27,-28.99 -32.5,-37.96 -14.31,-8.98 -30.31,-13.49 -48.06,-13.49 -25.22,0 -46.93,8.66 -65.12,25.97 -18.2,17.32 -27.3,46.18 -27.3,86.65zm333.12 43.98l33.5 -3.02c1.57,13.56 5.26,24.66 11.1,33.39 5.83,8.65 14.87,15.67 27.1,21.07 12.23,5.34 26.05,8.04 41.35,8.04 13.62,0 25.6,-2.01 36.01,-6.09 10.42,-4.08 18.13,-9.66 23.22,-16.75 5.07,-7.09 7.65,-14.81 7.65,-23.09 0,-8.41 -2.45,-15.75 -7.34,-22.08 -4.89,-6.27 -12.98,-11.55 -24.27,-15.87 -7.22,-2.77 -23.22,-7.16 -48.01,-13.12 -24.78,-5.97 -42.1,-11.55 -52.01,-16.82 -12.85,-6.77 -22.39,-15.18 -28.67,-25.16 -6.34,-9.96 -9.47,-21.2 -9.47,-33.56 0,-13.68 3.89,-26.41 11.6,-38.21 7.72,-11.85 18.95,-20.83 33.82,-26.98 14.81,-6.14 31.31,-9.22 49.44,-9.22 19.96,0 37.58,3.2 52.83,9.66 15.25,6.4 26.97,15.87 35.19,28.43 8.22,12.47 12.62,26.65 13.25,42.47l-34.26 2.63c-1.82,-17 -8.04,-29.86 -18.64,-38.52 -10.6,-8.72 -26.28,-13.05 -46.99,-13.05 -21.58,0 -37.34,3.95 -47.18,11.85 -9.85,7.91 -14.81,17.45 -14.81,28.62 0,9.66 3.51,17.63 10.48,23.9 6.9,6.22 24.79,12.67 53.77,19.2 28.99,6.59 48.88,12.3 59.66,17.19 15.63,7.22 27.23,16.31 34.7,27.42 7.47,11.05 11.16,23.78 11.16,38.21 0,14.36 -4.07,27.79 -12.29,40.46 -8.22,12.68 -19.96,22.53 -35.32,29.56 -15.38,7.02 -32.63,10.53 -51.88,10.53 -24.36,0 -44.74,-3.57 -61.17,-10.66 -16.51,-7.09 -29.38,-17.76 -38.72,-32.06 -9.42,-14.24 -14.31,-30.36 -14.8,-48.37zm445.29 86.58l0 -269.53 92.84 0c20.96,0 36.96,1.25 48.01,3.83 15.43,3.57 28.61,10.04 39.52,19.32 14.25,12.04 24.85,27.35 31.87,46.05 7.09,18.69 10.61,40.09 10.61,64.12 0,20.45 -2.38,38.59 -7.16,54.39 -4.76,15.81 -10.91,28.93 -18.38,39.28 -7.53,10.35 -15.69,18.51 -24.59,24.41 -8.86,5.95 -19.58,10.48 -32.13,13.55 -12.61,3.07 -27.04,4.58 -43.35,4.58l-97.24 0zm35.76 -31.62l57.46 0c17.76,0 31.69,-1.63 41.79,-4.96 10.09,-3.32 18.13,-7.96 24.16,-13.99 8.4,-8.47 14.98,-19.89 19.69,-34.2 4.71,-14.3 7.09,-31.61 7.09,-52.01 0,-28.23 -4.64,-49.93 -13.86,-65.11 -9.23,-15.2 -20.46,-25.36 -33.7,-30.5 -9.52,-3.7 -24.9,-5.52 -46.11,-5.52l-56.52 0 0 206.29zm314.79 31.62l0 -269.53 194.62 0 0 31.62 -158.86 0 0 82.81 148.7 0 0 31.63 -148.7 0 0 91.85 165.26 0 0 31.62 -201.02 0zm494.61 0l0 -237.91 -88.84 0 0 -31.62 213.45 0 0 31.62 -88.84 0 0 237.91 -35.77 0zm240.14 0l0 -269.53 194.62 0 0 31.62 -158.86 0 0 82.81 148.7 0 0 31.63 -148.7 0 0 91.85 165.26 0 0 31.62 -201.02 0zm520.27 -94.55l35.76 9.04c-7.47,29.3 -20.89,51.57 -40.28,66.93 -19.38,15.38 -43.1,23.09 -71.15,23.09 -28.98,0 -52.58,-5.89 -70.77,-17.75 -18.2,-11.79 -32,-28.92 -41.47,-51.32 -9.47,-22.46 -14.25,-46.49 -14.25,-72.22 0,-28.04 5.34,-52.51 16.07,-73.4 10.73,-20.89 25.98,-36.76 45.74,-47.63 19.76,-10.85 41.53,-16.24 65.24,-16.24 26.98,0 49.63,6.84 67.95,20.58 18.38,13.73 31.18,33 38.4,57.85l-35 8.27c-6.22,-19.56 -15.32,-33.87 -27.18,-42.78 -11.85,-8.97 -26.79,-13.43 -44.79,-13.43 -20.65,0 -37.96,4.96 -51.82,14.87 -13.87,9.91 -23.66,23.27 -29.24,39.96 -5.65,16.76 -8.47,34.01 -8.47,51.77 0,22.89 3.33,42.91 9.98,59.97 6.64,17.13 17,29.87 31.05,38.34 14.05,8.47 29.23,12.67 45.61,12.67 19.96,0 36.77,-5.76 50.57,-17.25 13.8,-11.54 23.15,-28.61 28.05,-51.32zm157.45 94.55l0 -269.53 36.63 0 141.42 211.56 0 -211.56 34.26 0 0 269.53 -36.64 0 -141.42 -211.56 0 211.56 -34.25 0zm339.26 -131.19c0,-44.67 12.05,-79.68 36.08,-104.97 24.02,-25.28 55.02,-37.89 93.04,-37.89 24.91,0 47.31,5.96 67.32,17.82 19.96,11.86 35.2,28.42 45.68,49.69 10.47,21.21 15.75,45.3 15.75,72.22 0,27.28 -5.53,51.75 -16.57,73.27 -11.04,21.58 -26.66,37.89 -46.86,48.94 -20.27,11.11 -42.1,16.62 -65.51,16.62 -25.4,0 -48.05,-6.14 -68.07,-18.38 -19.95,-12.23 -35.13,-28.92 -45.42,-50.12 -10.29,-21.14 -15.44,-43.55 -15.44,-67.2zm36.89 0.63c0,32.43 8.72,57.97 26.17,76.6 17.44,18.64 39.34,27.98 65.68,27.98 26.86,0 48.88,-9.41 66.26,-28.23 17.31,-18.82 25.98,-45.55 25.98,-80.18 0,-21.89 -3.71,-41.03 -11.11,-57.34 -7.41,-16.32 -18.26,-28.99 -32.5,-37.96 -14.3,-8.98 -30.3,-13.49 -48.06,-13.49 -25.22,0 -46.92,8.66 -65.12,25.97 -18.2,17.32 -27.3,46.18 -27.3,86.65zm343.28 130.56l0 -269.53 35.76 0 0 237.91 132.51 0 0 31.62 -168.27 0zm277.9 -131.19c0,-44.67 12.05,-79.68 36.09,-104.97 24.01,-25.28 55.01,-37.89 93.04,-37.89 24.9,0 47.3,5.96 67.31,17.82 19.96,11.86 35.2,28.42 45.68,49.69 10.48,21.21 15.75,45.3 15.75,72.22 0,27.28 -5.53,51.75 -16.56,73.27 -11.05,21.58 -26.67,37.89 -46.87,48.94 -20.27,11.11 -42.1,16.62 -65.51,16.62 -25.4,0 -48.05,-6.14 -68.07,-18.38 -19.95,-12.23 -35.13,-28.92 -45.42,-50.12 -10.29,-21.14 -15.44,-43.55 -15.44,-67.2zm36.89 0.63c0,32.43 8.72,57.97 26.17,76.6 17.44,18.64 39.34,27.98 65.69,27.98 26.85,0 48.87,-9.41 66.25,-28.23 17.31,-18.82 25.98,-45.55 25.98,-80.18 0,-21.89 -3.71,-41.03 -11.11,-57.34 -7.41,-16.32 -18.26,-28.99 -32.5,-37.96 -14.3,-8.98 -30.3,-13.49 -48.06,-13.49 -25.22,0 -46.92,8.66 -65.12,25.97 -18.2,17.32 -27.3,46.18 -27.3,86.65zm470.9 24.78l0 -31.62 114.05 0 0 99.88c-17.5,13.93 -35.57,24.47 -54.2,31.5 -18.64,7.02 -37.77,10.53 -57.34,10.53 -26.49,0 -50.52,-5.64 -72.15,-17 -21.59,-11.29 -37.96,-27.72 -48.94,-49.12 -11.05,-21.46 -16.56,-45.43 -16.56,-71.84 0,-26.23 5.45,-50.7 16.43,-73.46 10.98,-22.72 26.73,-39.59 47.31,-50.57 20.57,-11.05 44.29,-16.57 71.15,-16.57 19.45,0 37.08,3.14 52.82,9.48 15.75,6.33 28.11,15.11 37.02,26.34 8.97,11.3 15.74,26.05 20.39,44.17l-32.19 8.79c-4.08,-13.68 -9.09,-24.47 -15.06,-32.38 -6.01,-7.84 -14.55,-14.11 -25.72,-18.82 -11.1,-4.7 -23.47,-7.09 -37.08,-7.09 -16.25,0 -30.3,2.51 -42.23,7.47 -11.85,4.95 -21.38,11.48 -28.72,19.64 -7.29,8.09 -12.93,17 -16.95,26.66 -6.83,16.75 -10.29,34.82 -10.29,54.34 0,24.09 4.15,44.23 12.37,60.48 8.27,16.18 20.32,28.23 36.07,36.07 15.81,7.85 32.57,11.8 50.31,11.8 15.44,0 30.5,-3.02 45.18,-8.98 14.68,-6.02 25.79,-12.35 33.37,-19.2l0 -50.5 -79.04 0zm250.67 105.78l0 -269.53 35.76 0 0 269.53 -35.76 0zm146.96 0l103.4 -269.53 39.21 0 109.73 269.53 -40.6 0 -31.17 -81.69 -113.51 0 -29.23 81.69 -37.83 0zm77.55 -110.67l91.85 0 -28.12 -74.73c-8.47,-22.71 -14.87,-41.47 -19.32,-56.28 -3.69,17.57 -8.65,34.83 -14.87,51.89l-29.54 79.12zm314.54 110.67l103.4 -269.53 39.21 0 109.73 269.53 -40.59 0 -31.18 -81.69 -113.5 0 -29.24 81.69 -37.83 0zm77.55 -110.67l91.86 0 -28.12 -74.73c-8.47,-22.71 -14.87,-41.47 -19.33,-56.28 -3.69,17.57 -8.65,34.83 -14.87,51.89l-29.54 79.12zm269.37 24.09l33.51 -3.02c1.56,13.56 5.26,24.66 11.09,33.39 5.84,8.65 14.87,15.67 27.1,21.07 12.24,5.34 26.05,8.04 41.36,8.04 13.61,0 25.59,-2.01 36.01,-6.09 10.42,-4.08 18.13,-9.66 23.21,-16.75 5.08,-7.09 7.66,-14.81 7.66,-23.09 0,-8.41 -2.45,-15.75 -7.35,-22.08 -4.89,-6.27 -12.98,-11.55 -24.27,-15.87 -7.21,-2.77 -23.21,-7.16 -48,-13.12 -24.78,-5.97 -42.1,-11.55 -52.01,-16.82 -12.86,-6.77 -22.4,-15.18 -28.67,-25.16 -6.34,-9.96 -9.47,-21.2 -9.47,-33.56 0,-13.68 3.89,-26.41 11.6,-38.21 7.72,-11.85 18.94,-20.83 33.81,-26.98 14.81,-6.14 31.32,-9.22 49.44,-9.22 19.96,0 37.58,3.2 52.83,9.66 15.25,6.4 26.98,15.87 35.2,28.43 8.21,12.47 12.61,26.65 13.24,42.47l-34.26 2.63c-1.82,-17 -8.03,-29.86 -18.63,-38.52 -10.6,-8.72 -26.29,-13.05 -47,-13.05 -21.57,0 -37.33,3.95 -47.17,11.85 -9.85,7.91 -14.81,17.45 -14.81,28.62 0,9.66 3.51,17.63 10.47,23.9 6.91,6.22 24.79,12.67 53.77,19.2 28.99,6.59 48.88,12.3 59.66,17.19 15.63,7.22 27.23,16.31 34.7,27.42 7.47,11.05 11.17,23.78 11.17,38.21 0,14.36 -4.08,27.79 -12.29,40.46 -8.22,12.68 -19.96,22.53 -35.33,29.56 -15.37,7.02 -32.62,10.53 -51.88,10.53 -24.35,0 -44.73,-3.57 -61.17,-10.66 -16.5,-7.09 -29.37,-17.76 -38.72,-32.06 -9.41,-14.24 -14.3,-30.36 -14.8,-48.37zm329.04 0l33.5 -3.02c1.57,13.56 5.26,24.66 11.1,33.39 5.83,8.65 14.87,15.67 27.1,21.07 12.23,5.34 26.05,8.04 41.35,8.04 13.62,0 25.6,-2.01 36.01,-6.09 10.42,-4.08 18.13,-9.66 23.22,-16.75 5.07,-7.09 7.65,-14.81 7.65,-23.09 0,-8.41 -2.45,-15.75 -7.34,-22.08 -4.89,-6.27 -12.98,-11.55 -24.27,-15.87 -7.22,-2.77 -23.22,-7.16 -48.01,-13.12 -24.78,-5.97 -42.1,-11.55 -52.01,-16.82 -12.85,-6.77 -22.39,-15.18 -28.67,-25.16 -6.34,-9.96 -9.47,-21.2 -9.47,-33.56 0,-13.68 3.89,-26.41 11.6,-38.21 7.72,-11.85 18.95,-20.83 33.82,-26.98 14.81,-6.14 31.31,-9.22 49.44,-9.22 19.96,0 37.58,3.2 52.83,9.66 15.25,6.4 26.97,15.87 35.19,28.43 8.22,12.47 12.62,26.65 13.25,42.47l-34.26 2.63c-1.82,-17 -8.04,-29.86 -18.64,-38.52 -10.6,-8.72 -26.28,-13.05 -46.99,-13.05 -21.58,0 -37.34,3.95 -47.18,11.85 -9.85,7.91 -14.81,17.45 -14.81,28.62 0,9.66 3.51,17.63 10.48,23.9 6.9,6.22 24.79,12.67 53.77,19.2 28.99,6.59 48.88,12.3 59.66,17.19 15.63,7.22 27.23,16.31 34.7,27.42 7.47,11.05 11.16,23.78 11.16,38.21 0,14.36 -4.07,27.79 -12.29,40.46 -8.22,12.68 -19.96,22.53 -35.32,29.56 -15.38,7.02 -32.63,10.53 -51.88,10.53 -24.36,0 -44.74,-3.57 -61.17,-10.66 -16.51,-7.09 -29.38,-17.76 -38.72,-32.06 -9.42,-14.24 -14.31,-30.36 -14.8,-48.37zm346.72 86.58l0 -269.53 35.76 0 0 269.53 -35.76 0zm164.85 -86.58l33.5 -3.02c1.57,13.56 5.26,24.66 11.1,33.39 5.83,8.65 14.87,15.67 27.1,21.07 12.24,5.34 26.05,8.04 41.35,8.04 13.62,0 25.6,-2.01 36.02,-6.09 10.41,-4.08 18.12,-9.66 23.21,-16.75 5.07,-7.09 7.65,-14.81 7.65,-23.09 0,-8.41 -2.45,-15.75 -7.34,-22.08 -4.89,-6.27 -12.98,-11.55 -24.27,-15.87 -7.22,-2.77 -23.22,-7.16 -48.01,-13.12 -24.78,-5.97 -42.1,-11.55 -52.01,-16.82 -12.85,-6.77 -22.39,-15.18 -28.67,-25.16 -6.34,-9.96 -9.47,-21.2 -9.47,-33.56 0,-13.68 3.89,-26.41 11.6,-38.21 7.73,-11.85 18.95,-20.83 33.82,-26.98 14.81,-6.14 31.31,-9.22 49.44,-9.22 19.96,0 37.58,3.2 52.83,9.66 15.25,6.4 26.97,15.87 35.19,28.43 8.22,12.47 12.62,26.65 13.25,42.47l-34.26 2.63c-1.82,-17 -8.04,-29.86 -18.64,-38.52 -10.6,-8.72 -26.28,-13.05 -46.99,-13.05 -21.58,0 -37.33,3.95 -47.18,11.85 -9.85,7.91 -14.81,17.45 -14.81,28.62 0,9.66 3.51,17.63 10.48,23.9 6.9,6.22 24.79,12.67 53.77,19.2 28.99,6.59 48.88,12.3 59.66,17.19 15.63,7.22 27.23,16.31 34.7,27.42 7.47,11.05 11.16,23.78 11.16,38.21 0,14.36 -4.07,27.79 -12.29,40.46 -8.22,12.68 -19.95,22.53 -35.32,29.56 -15.38,7.02 -32.63,10.53 -51.88,10.53 -24.36,0 -44.74,-3.57 -61.17,-10.66 -16.51,-7.09 -29.37,-17.76 -38.72,-32.06 -9.41,-14.24 -14.31,-30.36 -14.8,-48.37zm409.21 86.58l0 -237.91 -88.84 0 0 -31.62 213.45 0 0 31.62 -88.84 0 0 237.91 -35.77 0zm245.41 0l0 -269.53 35.76 0 0 269.53 -35.76 0zm253.3 0l-104.14 -269.53 38.64 0 70.01 195.87c5.6,15.69 10.36,30.37 14.13,44.1 4.14,-14.74 8.97,-29.41 14.49,-44.1l72.65 -195.87 36.39 0 -105.09 269.53 -37.08 0zm194.77 0l103.4 -269.53 39.21 0 109.73 269.53 -40.59 0 -31.18 -81.69 -113.5 0 -29.24 81.69 -37.83 0zm77.55 -110.67l91.85 0 -28.11 -74.73c-8.47,-22.71 -14.87,-41.47 -19.33,-56.28 -3.69,17.57 -8.65,34.83 -14.87,51.89l-29.54 79.12z"/>
   <g>
    <polygon class="fil2" points="21193.21,4128.61 21316.26,4128.61 21431.14,4485.53 21433,4485.53 21546.68,4128.61 21670.32,4128.61 21670.32,4630.87 21592.26,4630.87 21592.26,4227.26 21590.99,4227.26 21456.75,4630.87 21401.84,4630.87 21269.44,4227.26 21268.18,4227.26 21268.18,4630.87 21193.21,4630.87 "/>
    <path class="fil2" d="M22224.84 4246.38c-12.59,-17.98 -28.89,-31.08 -49.1,-39.3 -20.11,-8.25 -39.85,-12.45 -59.06,-12.45 -24.63,0 -47.02,4.69 -67.13,14.16 -20.21,9.49 -37.49,22.51 -52.08,39.06 -14.58,16.57 -25.73,35.88 -33.61,58.15 -7.81,22.21 -11.68,46.3 -11.68,72.34 0,27.48 3.8,52.43 11.4,75.24 7.62,22.65 18.49,42.21 32.53,58.45 14.13,16.39 31.07,29.08 50.72,37.98 19.67,9 41.86,13.51 66.51,13.51 25.52,0 48.1,-5.37 67.84,-15.98 19.65,-10.66 35.52,-24.71 47.66,-42.21l67.85 50.32c-21.11,27.97 -46.84,49.69 -77.27,64.96 -30.46,15.33 -66.05,23.08 -106.72,23.08 -37.24,0 -71.39,-6.5 -102.46,-19.52 -31.18,-13.02 -57.88,-31.17 -80.28,-54.63 -22.36,-23.46 -39.85,-51.38 -52.36,-83.63 -12.48,-32.44 -18.82,-68.21 -18.82,-107.57 0,-40.2 6.6,-76.44 19.83,-108.9 13.22,-32.34 31.35,-59.87 54.43,-82.57 23.01,-22.76 50.21,-40.17 81.54,-52.54 31.35,-12.34 65.4,-18.47 102.1,-18.47 15.22,0 31.17,1.55 47.66,4.61 16.56,3.07 32.51,7.84 47.74,14.27 15.22,6.32 29.53,14.24 42.93,23.73 13.51,9.36 24.91,20.75 34.26,34.04l-64.43 53.87z"/>
    <polygon class="fil2" points="22572.76,4206.7 22415.75,4206.7 22415.75,4128.61 22821.12,4128.61 22821.12,4206.7 22663.97,4206.7 22663.97,4630.87 22572.76,4630.87 "/>
    <polygon class="fil2" points="22951.14,4630.87 23048.4,4630.87 23048.4,4128.61 22951.14,4128.61 "/>
    <polygon class="fil2" points="6831.83,4415.85 20696.5,4415.85 20696.5,4348.01 6831.83,4348.01 "/>
   </g>
  </g>
 </g>
</svg>
